<?xml version="1.0" encoding="UTF-8"?>
<svg version="1.1" xmlns="http://www.w3.org/2000/svg" width="1024" height="337">
<path d="M0 0 C11.31820313 8.14643529 18.24296365 19.46453839 21.6484375 32.90625 C21.86384147 34.63455011 22.07258019 36.363699 22.2734375 38.09375 C23.0870201 42.27407738 24.4014233 43.92710033 27.67578125 46.59765625 C32.64460675 50.88163026 37.12271543 55.48565842 41.61328125 60.265625 C43.84348994 62.60130688 46.07785443 64.93295762 48.31274414 67.26416016 C49.82417954 68.85464926 51.32367902 70.45656961 52.81079102 72.06982422 C62.94188544 83.02628286 70.79666381 89.10453966 85.67295837 91.49971008 C96.13941827 93.65363501 106.27917484 102.63726639 112.01171875 111.3125 C121.25455769 126.35577594 123.75828609 142.12929397 119.74609375 159.31640625 C115.54477226 173.05667118 106.79019002 184.14021817 94.47265625 191.44140625 C88.41917729 194.58117749 82.64049134 196.75867805 75.8359375 197.28125 C65.97127057 198.97008098 58.0931535 211.11380671 51.97998047 218.36962891 C49.98688708 220.66968937 47.82793994 222.78410288 45.6484375 224.90625 C44.9265625 225.669375 44.2046875 226.4325 43.4609375 227.21875 C41.6484375 228.90625 41.6484375 228.90625 39.6484375 228.90625 C39.4009375 229.48375 39.1534375 230.06125 38.8984375 230.65625 C37.46543762 233.23564979 35.86419074 234.96746592 33.6484375 236.90625 C32.9884375 236.90625 32.3284375 236.90625 31.6484375 236.90625 C30.9884375 238.22625 30.3284375 239.54625 29.6484375 240.90625 C28.9884375 240.90625 28.3284375 240.90625 27.6484375 240.90625 C27.3184375 241.89625 26.9884375 242.88625 26.6484375 243.90625 C26.15859375 244.32261719 25.66875 244.73898437 25.1640625 245.16796875 C22.89714368 247.76791431 22.89406922 250.33783363 22.3984375 253.71875 C19.84276131 268.23506139 12.72291383 279.00060013 0.984375 287.93359375 C-11.81760855 296.65886496 -26.87793505 299.86775583 -42.14453125 297.2578125 C-50.6564156 295.22745477 -57.40800537 292.21730937 -64.3515625 286.90625 C-65.15335937 286.2978125 -65.95515625 285.689375 -66.78125 285.0625 C-76.53120824 277.0524333 -81.53587591 267.07728235 -84.3515625 254.90625 C-84.44022079 253.79119583 -84.52887909 252.67614166 -84.620224 251.52729797 C-85.48297693 247.25558284 -86.69258766 245.8440572 -89.77954102 242.82885742 C-90.23810486 242.37263 -90.6966687 241.91640259 -91.16912842 241.4463501 C-92.67607408 239.95368903 -94.20287118 238.48321094 -95.73046875 237.01171875 C-96.78423946 235.97423207 -97.83654179 234.93525202 -98.88743591 233.89485168 C-101.64813126 231.16829491 -104.42549143 228.45940145 -107.2076416 225.75476074 C-111.66833287 221.41277447 -116.10357984 217.04482731 -120.5379467 212.67598915 C-122.09041729 211.15149894 -123.65023041 209.63484484 -125.21131897 208.1191864 C-126.61794044 206.74184074 -126.61794044 206.74184074 -128.05297852 205.33666992 C-128.88491226 204.52727463 -129.71684601 203.71787933 -130.57398987 202.88395691 C-132.3515625 200.90625 -132.3515625 200.90625 -132.3515625 198.90625 C-133.69347656 198.75929687 -133.69347656 198.75929687 -135.0625 198.609375 C-150.9294416 196.64715195 -163.16010624 190.8853941 -173.5703125 178.36328125 C-182.09694673 166.60176167 -185.61260308 152.48974292 -183.91796875 138.05859375 C-181.2874782 123.41855324 -174.9641531 110.98051589 -162.8515625 102.06640625 C-156.47946331 97.78515211 -149.10680874 93.35375737 -141.27124023 92.74449158 C-132.62819888 91.81948141 -127.88778939 86.6998803 -121.98046875 80.7734375 C-120.92655693 79.73765914 -119.87184883 78.70269047 -118.81639099 77.66848755 C-116.61503678 75.5013545 -114.42991069 73.31927948 -112.25415039 71.12646484 C-109.48946852 68.34425357 -106.68010888 65.61275843 -103.85510349 62.89199638 C-101.6639987 60.76797733 -99.50415374 58.61410603 -97.35154533 56.45114517 C-96.32888341 55.43233414 -95.29609272 54.42356953 -94.25250435 53.42620468 C-86.97367742 46.43403616 -84.08280388 40.62192715 -82.95201111 30.71096802 C-81.08272235 18.86629634 -73.54884175 8.67219759 -64.22265625 1.5 C-44.61535408 -12.38315386 -20.43141273 -12.92711369 0 0 Z M-58.734375 24.5078125 C-63.79043116 32.00640786 -64.97010292 39.74766191 -65.859375 48.5859375 C-66.29552325 51.52820743 -66.82543084 53.39633099 -68.3515625 55.90625 C-69.0115625 55.90625 -69.6715625 55.90625 -70.3515625 55.90625 C-71.91805108 57.49362399 -71.91805108 57.49362399 -73.5390625 59.53125 C-76.3959081 62.90589886 -79.37132631 65.72515932 -82.78125 68.5234375 C-84.93590367 70.42081909 -86.60262513 72.63910896 -88.3515625 74.90625 C-89.3415625 75.40125 -89.3415625 75.40125 -90.3515625 75.90625 C-90.3515625 76.56625 -90.3515625 77.22625 -90.3515625 77.90625 C-91.0115625 77.90625 -91.6715625 77.90625 -92.3515625 77.90625 C-93.84981573 79.42654885 -93.84981573 79.42654885 -95.4140625 81.40625 C-98.08335426 84.56036093 -100.85117682 87.32849577 -103.9765625 90.03125 C-107.53158206 93.11025847 -110.41910844 96.24068242 -113.3515625 99.90625 C-114.97496055 101.61509005 -116.64475303 103.28071717 -118.3515625 104.90625 C-118.81820312 105.43734375 -119.28484375 105.9684375 -119.765625 106.515625 C-124.44936782 111.36087619 -128.52684554 111.41266104 -135.07421875 111.66015625 C-143.18226176 112.26898427 -149.50063849 115.9585568 -155.3046875 121.515625 C-161.84163611 129.15038177 -164.92118894 137.88600313 -164.3515625 147.90625 C-163.32470967 154.71329051 -161.72826666 160.46852665 -157.3515625 165.90625 C-156.8153125 166.73125 -156.2790625 167.55625 -155.7265625 168.40625 C-148.54014585 175.97089911 -141.19132745 177.64086778 -131.18359375 178.2890625 C-124.41488639 179.37923147 -120.15794994 182.61471282 -115.7265625 187.84375 C-114.96859375 188.71773437 -114.210625 189.59171875 -113.4296875 190.4921875 C-112.74390625 191.28882813 -112.058125 192.08546875 -111.3515625 192.90625 C-107.91404577 196.68536469 -107.91404577 196.68536469 -103.3515625 198.90625 C-103.3515625 199.56625 -103.3515625 200.22625 -103.3515625 200.90625 C-102.6915625 200.90625 -102.0315625 200.90625 -101.3515625 200.90625 C-101.08650406 201.49695282 -100.82144562 202.08765564 -100.5483551 202.69625854 C-99.31336897 204.97677799 -98.0428851 206.45056756 -96.20288086 208.26611328 C-95.56559555 208.90001984 -94.92831024 209.53392639 -94.27171326 210.18704224 C-93.58521194 210.86008392 -92.89871063 211.53312561 -92.19140625 212.2265625 C-91.48633438 212.9264328 -90.78126251 213.6263031 -90.05482483 214.34738159 C-87.8042672 216.58013982 -85.54713354 218.80609265 -83.2890625 221.03125 C-81.02830552 223.26441043 -78.76901228 225.49900286 -76.5125885 227.73654175 C-75.10861199 229.12823888 -73.70197142 230.51725444 -72.29246521 231.90335083 C-71.65833206 232.53095306 -71.02419891 233.1585553 -70.37084961 233.80517578 C-69.81062607 234.3571463 -69.25040253 234.90911682 -68.67320251 235.47781372 C-65.82265331 238.55870402 -66.05015519 241.72104944 -65.6640625 245.78125 C-64.5520963 255.11727333 -61.52895939 263.32095792 -54.5390625 269.90625 C-45.77321766 276.80451561 -36.3084159 278.83985171 -25.3515625 277.90625 C-18.11387345 276.28416135 -11.97915862 273.76644665 -6.3515625 268.90625 C-6.3515625 268.24625 -6.3515625 267.58625 -6.3515625 266.90625 C-5.6915625 266.90625 -5.0315625 266.90625 -4.3515625 266.90625 C0.42730374 258.69827364 2.82523483 252.37813619 3.20703125 242.80859375 C4.06555062 237.16363898 7.39879887 233.93812315 11.3984375 230.09375 C14.33779534 227.26068969 17.12583242 224.38449474 19.77709961 221.28417969 C23.78380399 216.68640522 28.03876927 212.37171221 32.35546875 208.06640625 C33.16207443 207.25884384 33.96868011 206.45128143 34.79972839 205.61924744 C36.49017636 203.92812355 38.18186945 202.23824344 39.87475586 200.54956055 C42.4743123 197.95540298 45.06843425 195.35589575 47.66210938 192.75585938 C49.30957492 191.10905389 50.95735024 189.46255824 52.60546875 187.81640625 C53.38251663 187.03733414 54.15956451 186.25826202 54.9601593 185.45558167 C56.03719368 184.38327553 56.03719368 184.38327553 57.13598633 183.28930664 C57.7677327 182.65835587 58.39947906 182.02740509 59.05036926 181.37733459 C62.2497282 178.432199 65.29320056 178.62101179 69.5234375 178.21875 C78.85946083 177.1067838 87.06314542 174.08364689 93.6484375 167.09375 C99.90600038 159.11154174 102.56362676 150.02417574 101.6484375 139.90625 C99.95413318 129.38146132 96.05596814 120.84468303 87.53125 114.18359375 C80.2657356 109.25449996 73.43947934 108.38441463 64.80859375 108.08203125 C60.93266302 107.41272623 58.91489178 105.6410371 56.06030273 102.99194336 C55.18067368 102.176707 54.30104462 101.36147064 53.39476013 100.52153015 C48.84270202 96.1866763 44.35338692 91.79388799 39.8984375 87.359375 C39.41363922 86.8774041 38.92884094 86.3954332 38.42935181 85.89885712 C35.87619427 83.36051272 33.32578274 80.81944947 30.77783203 78.27587891 C28.15752357 75.66110739 25.52801665 73.05578758 22.89639282 70.45241165 C20.85817273 68.43281491 18.82669138 66.40654148 16.79699707 64.37837982 C15.82986804 63.41426574 14.86025229 62.45263917 13.88806152 61.49362946 C12.53418767 60.15684916 11.19068807 58.80958669 9.84765625 57.46191406 C9.08283936 56.7007428 8.31802246 55.93957153 7.5300293 55.15533447 C4.23246407 51.21372356 3.45777752 47.29497846 2.71264648 42.28491211 C1.36008053 33.39076631 -0.66919751 25.970481 -7.71875 19.8515625 C-24.13433193 7.82677452 -45.33489755 7.77236557 -58.734375 24.5078125 Z " fill="#57D2E8" transform="translate(254.3515625,22.09375)"/>
<path d="M0 0 C1.71896484 -0.0309375 1.71896484 -0.0309375 3.47265625 -0.0625 C17.33700922 -0.12631751 17.33700922 -0.12631751 22.67504883 4.6315918 C27.4080235 9.93921938 27.29703688 14.92139358 27.44140625 21.734375 C27.46218735 22.54996887 27.48296844 23.36556274 27.50437927 24.20587158 C27.56961297 26.80383105 27.62863768 29.40188913 27.6875 32 C27.73071014 33.764333 27.77432522 35.52865613 27.81835938 37.29296875 C27.92526745 41.61187884 28.02660827 45.93088784 28.125 50.25 C29.27500488 50.2593457 30.42500977 50.26869141 31.60986328 50.27832031 C35.89296632 50.31831384 40.17535813 50.38409835 44.45800781 50.45751953 C46.30850053 50.48567498 48.15911229 50.50691646 50.00976562 50.52099609 C52.6763988 50.5425012 55.34160884 50.5891886 58.0078125 50.640625 C58.82992218 50.64185364 59.65203186 50.64308228 60.49905396 50.64434814 C65.82035187 50.77881072 68.89869013 51.73037393 73.125 55.25 C78.27130692 62.34835438 77.3418779 70.06214408 77.375 78.5 C77.4059375 80.44712891 77.4059375 80.44712891 77.4375 82.43359375 C77.46592477 89.40476788 77.31388211 94.98585392 74.125 101.25 C66.40437169 108.5940123 56.06961597 107.34026993 46 107.375 C44.90945313 107.38188843 44.90945313 107.38188843 43.796875 107.38891602 C38.19434732 107.37322793 32.68912862 106.8859418 27.125 106.25 C27.14071045 107.40000488 27.1564209 108.55000977 27.17260742 109.73486328 C27.22706868 114.01750637 27.26140886 118.30011906 27.28979492 122.58300781 C27.30484471 124.43364619 27.32528933 126.28424911 27.35131836 128.13476562 C27.3878698 130.80087045 27.40476454 133.46650208 27.41796875 136.1328125 C27.43345261 136.95492218 27.44893646 137.77703186 27.46488953 138.62405396 C27.46653015 144.27413738 26.5791687 148.55936192 22.625 152.89453125 C15.95879394 158.08514482 9.70009245 157.50151519 1.61132812 157.54516602 C0.12750702 157.55666725 -1.35627332 157.57709 -2.83984375 157.60668945 C-4.99247121 157.6496173 -7.14387125 157.66556951 -9.296875 157.67578125 C-10.58174805 157.69036377 -11.86662109 157.70494629 -13.19042969 157.7199707 C-18.99697015 156.97934054 -22.38237596 154.9087749 -26.27441406 150.58349609 C-28.36378808 146.23201459 -28.47743364 142.68226624 -28.484375 137.9140625 C-28.50091125 137.03471039 -28.51744751 136.15535828 -28.53448486 135.24935913 C-28.58282914 132.45783408 -28.60430535 129.66685324 -28.625 126.875 C-28.65317108 124.97523324 -28.6831001 123.07549168 -28.71484375 121.17578125 C-28.78858434 116.533899 -28.83824173 111.89231645 -28.875 107.25 C-29.535 107.91 -30.195 108.57 -30.875 109.25 C-30.875 108.59 -30.875 107.93 -30.875 107.25 C-31.9894751 107.24589111 -33.1039502 107.24178223 -34.25219727 107.23754883 C-38.41053712 107.2156794 -42.56794123 107.16130983 -46.72583008 107.09741211 C-48.52098583 107.0742999 -50.31627588 107.05985236 -52.11157227 107.05444336 C-54.70152821 107.04510371 -57.28939178 107.00400753 -59.87890625 106.95703125 C-60.67398087 106.9609639 -61.46905548 106.96489655 -62.28822327 106.96894836 C-67.98465948 106.82176757 -71.80224259 105.32169351 -75.875 101.25 C-79.85119649 94.17399319 -79.32203538 86.69790332 -79.25 78.75 C-79.26160156 77.46996094 -79.27320313 76.18992187 -79.28515625 74.87109375 C-79.26378818 67.98345107 -78.99823116 62.44428424 -75.875 56.25 C-70.58996788 51.22277433 -66.76391571 51.11128077 -59.7109375 51.15234375 C-58.80372955 51.1537587 -57.89652161 51.15517365 -56.96182251 51.15663147 C-54.05784845 51.16223904 -51.15395085 51.17479282 -48.25 51.1875 C-46.28385528 51.19251402 -44.31770935 51.1970771 -42.3515625 51.20117188 C-37.5260121 51.21221094 -32.70051903 51.22948065 -27.875 51.25 C-27.89594727 50.03940918 -27.91689453 48.82881836 -27.93847656 47.58154297 C-28.0110654 43.07531639 -28.05686835 38.56914116 -28.09472656 34.0625 C-28.11479906 32.11482034 -28.14206332 30.16720063 -28.17675781 28.21972656 C-28.22546852 25.41456279 -28.24801241 22.61019813 -28.265625 19.8046875 C-28.28627014 18.93883026 -28.30691528 18.07297302 -28.32818604 17.18087769 C-28.33020406 11.70107932 -27.53984361 8.59136532 -23.875 4.25 C-17.04209615 -0.96458451 -8.18673959 0.03658878 0 0 Z " fill="#54D1E9" transform="translate(224.875,89.75)"/>
<!-- Full SVG continues exactly as provided in the frontend file -->
</svg>
