<?xml version="1.0" encoding="UTF-8"?>
<svg version="1.1" xmlns="http://www.w3.org/2000/svg" width="1024" height="337">
<path d="M0 0 C11.31820313 8.14643529 18.24296365 19.46453839 21.6484375 32.90625 C21.86384147 34.63455011 22.07258019 36.363699 22.2734375 38.09375 C23.0870201 42.27407738 24.4014233 43.92710033 27.67578125 46.59765625 C32.64460675 50.88163026 37.12271543 55.48565842 41.61328125 60.265625 C43.84348994 62.60130688 46.07785443 64.93295762 48.31274414 67.26416016 C49.82417954 68.85464926 51.32367902 70.45656961 52.81079102 72.06982422 C62.94188544 83.02628286 70.79666381 89.10453966 85.67295837 91.49971008 C96.13941827 93.65363501 106.27917484 102.63726639 112.01171875 111.3125 C121.25455769 126.35577594 123.75828609 142.12929397 119.74609375 159.31640625 C115.54477226 173.05667118 106.79019002 184.14021817 94.47265625 191.44140625 C88.41917729 194.58117749 82.64049134 196.75867805 75.8359375 197.28125 C65.97127057 198.97008098 58.0931535 211.11380671 51.97998047 218.36962891 C49.98688708 220.66968937 47.82793994 222.78410288 45.6484375 224.90625 C44.9265625 225.669375 44.2046875 226.4325 43.4609375 227.21875 C41.6484375 228.90625 41.6484375 228.90625 39.6484375 228.90625 C39.4009375 229.48375 39.1534375 230.06125 38.8984375 230.65625 C37.46543762 233.23564979 35.86419074 234.96746592 33.6484375 236.90625 C32.9884375 236.90625 32.3284375 236.90625 31.6484375 236.90625 C30.9884375 238.22625 30.3284375 239.54625 29.6484375 240.90625 C28.9884375 240.90625 28.3284375 240.90625 27.6484375 240.90625 C27.3184375 241.89625 26.9884375 242.88625 26.6484375 243.90625 C26.15859375 244.32261719 25.66875 244.73898437 25.1640625 245.16796875 C22.89714368 247.76791431 22.89406922 250.33783363 22.3984375 253.71875 C19.84276131 268.23506139 12.72291383 279.00060013 0.984375 287.93359375 C-11.81760855 296.65886496 -26.87793505 299.86775583 -42.14453125 297.2578125 C-50.6564156 295.22745477 -57.40800537 292.21730937 -64.3515625 286.90625 C-65.15335937 286.2978125 -65.95515625 285.689375 -66.78125 285.0625 C-76.53120824 277.0524333 -81.53587591 267.07728235 -84.3515625 254.90625 C-84.44022079 253.79119583 -84.52887909 252.67614166 -84.620224 251.52729797 C-85.48297693 247.25558284 -86.69258766 245.8440572 -89.77954102 242.82885742 C-90.23810486 242.37263 -90.6966687 241.91640259 -91.16912842 241.4463501 C-92.67607408 239.95368903 -94.20287118 238.48321094 -95.73046875 237.01171875 C-96.78423946 235.97423207 -97.83654179 234.93525202 -98.88743591 233.89485168 C-101.64813126 231.16829491 -104.42549143 228.45940145 -107.2076416 225.75476074 C-111.66833287 221.41277447 -116.10357984 217.04482731 -120.5379467 212.67598915 C-122.09041729 211.15149894 -123.65023041 209.63484484 -125.21131897 208.1191864 C-126.61794044 206.74184074 -126.61794044 206.74184074 -128.05297852 205.33666992 C-128.88491226 204.52727463 -129.71684601 203.71787933 -130.57398987 202.88395691 C-132.3515625 200.90625 -132.3515625 200.90625 -132.3515625 198.90625 C-133.69347656 198.75929687 -133.69347656 198.75929687 -135.0625 198.609375 C-150.9294416 196.64715195 -163.16010624 190.8853941 -173.5703125 178.36328125 C-182.09694673 166.60176167 -185.61260308 152.48974292 -183.91796875 138.05859375 C-181.2874782 123.41855324 -174.9641531 110.98051589 -162.8515625 102.06640625 C-156.47946331 97.78515211 -149.10680874 93.35375737 -141.27124023 92.74449158 C-132.62819888 91.81948141 -127.88778939 86.6998803 -121.98046875 80.7734375 C-120.92655693 79.73765914 -119.87184883 78.70269047 -118.81639099 77.66848755 C-116.61503678 75.5013545 -114.42991069 73.31927948 -112.25415039 71.12646484 C-109.48946852 68.34425357 -106.68010888 65.61275843 -103.85510349 62.89199638 C-101.6639987 60.76797733 -99.50415374 58.61410603 -97.35154533 56.45114517 C-96.32888341 55.43233414 -95.29609272 54.42356953 -94.25250435 53.42620468 C-86.97367742 46.43403616 -84.08280388 40.62192715 -82.95201111 30.71096802 C-81.08272235 18.86629634 -73.54884175 8.67219759 -64.22265625 1.5 C-44.61535408 -12.38315386 -20.43141273 -12.92711369 0 0 Z M-58.734375 24.5078125 C-63.79043116 32.00640786 -64.97010292 39.74766191 -65.859375 48.5859375 C-66.29552325 51.52820743 -66.82543084 53.39633099 -68.3515625 55.90625 C-69.0115625 55.90625 -69.6715625 55.90625 -70.3515625 55.90625 C-71.91805108 57.49362399 -71.91805108 57.49362399 -73.5390625 59.53125 C-76.3959081 62.90589886 -79.37132631 65.72515932 -82.78125 68.5234375 C-84.93590367 70.42081909 -86.60262513 72.63910896 -88.3515625 74.90625 C-89.3415625 75.40125 -89.3415625 75.40125 -90.3515625 75.90625 C-90.3515625 76.56625 -90.3515625 77.22625 -90.3515625 77.90625 C-91.0115625 77.90625 -91.6715625 77.90625 -92.3515625 77.90625 C-93.84981573 79.42654885 -93.84981573 79.42654885 -95.4140625 81.40625 C-98.08335426 84.56036093 -100.85117682 87.32849577 -103.9765625 90.03125 C-107.53158206 93.11025847 -110.41910844 96.24068242 -113.3515625 99.90625 C-114.97496055 101.61509005 -116.64475303 103.28071717 -118.3515625 104.90625 C-118.81820312 105.43734375 -119.28484375 105.9684375 -119.765625 106.515625 C-124.44936782 111.36087619 -128.52684554 111.41266104 -135.07421875 111.66015625 C-143.18226176 112.26898427 -149.50063849 115.9585568 -155.3046875 121.515625 C-161.84163611 129.15038177 -164.92118894 137.88600313 -164.3515625 147.90625 C-163.32470967 154.71329051 -161.72826666 160.46852665 -157.3515625 165.90625 C-156.8153125 166.73125 -156.2790625 167.55625 -155.7265625 168.40625 C-148.54014585 175.97089911 -141.19132745 177.64086778 -131.18359375 178.2890625 C-124.41488639 179.37923147 -120.15794994 182.61471282 -115.7265625 187.84375 C-114.96859375 188.71773437 -114.210625 189.59171875 -113.4296875 190.4921875 C-112.74390625 191.28882813 -112.058125 192.08546875 -111.3515625 192.90625 C-107.91404577 196.68536469 -107.91404577 196.68536469 -103.3515625 198.90625 C-103.3515625 199.56625 -103.3515625 200.22625 -103.3515625 200.90625 C-102.6915625 200.90625 -102.0315625 200.90625 -101.3515625 200.90625 C-101.08650406 201.49695282 -100.82144562 202.08765564 -100.5483551 202.69625854 C-99.31336897 204.97677799 -98.0428851 206.45056756 -96.20288086 208.26611328 C-95.56559555 208.90001984 -94.92831024 209.53392639 -94.27171326 210.18704224 C-93.58521194 210.86008392 -92.89871063 211.53312561 -92.19140625 212.2265625 C-91.48633438 212.9264328 -90.78126251 213.6263031 -90.05482483 214.34738159 C-87.8042672 216.58013982 -85.54713354 218.80609265 -83.2890625 221.03125 C-81.02830552 223.26441043 -78.76901228 225.49900286 -76.5125885 227.73654175 C-75.10861199 229.12823888 -73.70197142 230.51725444 -72.29246521 231.90335083 C-71.65833206 232.53095306 -71.02419891 233.1585553 -70.37084961 233.80517578 C-69.81062607 234.3571463 -69.25040253 234.90911682 -68.67320251 235.47781372 C-65.82265331 238.55870402 -66.05015519 241.72104944 -65.6640625 245.78125 C-64.5520963 255.11727333 -61.52895939 263.32095792 -54.5390625 269.90625 C-45.77321766 276.80451561 -36.3084159 278.83985171 -25.3515625 277.90625 C-18.11387345 276.28416135 -11.97915862 273.76644665 -6.3515625 268.90625 C-6.3515625 268.24625 -6.3515625 267.58625 -6.3515625 266.90625 C-5.6915625 266.90625 -5.0315625 266.90625 -4.3515625 266.90625 C0.42730374 258.69827364 2.82523483 252.37813619 3.20703125 242.80859375 C4.06555062 237.16363898 7.39879887 233.93812315 11.3984375 230.09375 C14.33779534 227.26068969 17.12583242 224.38449474 19.77709961 221.28417969 C23.78380399 216.68640522 28.03876927 212.37171221 32.35546875 208.06640625 C33.16207443 207.25884384 33.96868011 206.45128143 34.79972839 205.61924744 C36.49017636 203.92812355 38.18186945 202.23824344 39.87475586 200.54956055 C42.4743123 197.95540298 45.06843425 195.35589575 47.66210938 192.75585938 C49.30957492 191.10905389 50.95735024 189.46255824 52.60546875 187.81640625 C53.38251663 187.03733414 54.15956451 186.25826202 54.9601593 185.45558167 C56.03719368 184.38327553 56.03719368 184.38327553 57.13598633 183.28930664 C57.7677327 182.65835587 58.39947906 182.02740509 59.05036926 181.37733459 C62.2497282 178.432199 65.29320056 178.62101179 69.5234375 178.21875 C78.85946083 177.1067838 87.06314542 174.08364689 93.6484375 167.09375 C99.90600038 159.11154174 102.56362676 150.02417574 101.6484375 139.90625 C99.95413318 129.38146132 96.05596814 120.84468303 87.53125 114.18359375 C80.2657356 109.25449996 73.43947934 108.38441463 64.80859375 108.08203125 C60.93266302 107.41272623 58.91489178 105.6410371 56.06030273 102.99194336 C55.18067368 102.176707 54.30104462 101.36147064 53.39476013 100.52153015 C48.84270202 96.1866763 44.35338692 91.79388799 39.8984375 87.359375 C39.41363922 86.8774041 38.92884094 86.3954332 38.42935181 85.89885712 C35.87619427 83.36051272 33.32578274 80.81944947 30.77783203 78.27587891 C28.15752357 75.66110739 25.52801665 73.05578758 22.89639282 70.45241165 C20.85817273 68.43281491 18.82669138 66.40654148 16.79699707 64.37837982 C15.82986804 63.41426574 14.86025229 62.45263917 13.88806152 61.49362946 C12.53418767 60.15684916 11.19068807 58.80958669 9.84765625 57.46191406 C9.08283936 56.7007428 8.31802246 55.93957153 7.5300293 55.15533447 C4.23246407 51.21372356 3.45777752 47.29497846 2.71264648 42.28491211 C1.36008053 33.39076631 -0.66919751 25.970481 -7.71875 19.8515625 C-24.13433193 7.82677452 -45.33489755 7.77236557 -58.734375 24.5078125 Z " fill="#57D2E8" transform="translate(254.3515625,22.09375)"/>
<path d="M0 0 C1.71896484 -0.0309375 1.71896484 -0.0309375 3.47265625 -0.0625 C17.33700922 -0.12631751 17.33700922 -0.12631751 22.67504883 4.6315918 C27.4080235 9.93921938 27.29703688 14.92139358 27.44140625 21.734375 C27.46218735 22.54996887 27.48296844 23.36556274 27.50437927 24.20587158 C27.56961297 26.80383105 27.62863768 29.40188913 27.6875 32 C27.73071014 33.764333 27.77432522 35.52865613 27.81835938 37.29296875 C27.92526745 41.61187884 28.02660827 45.93088784 28.125 50.25 C29.27500488 50.2593457 30.42500977 50.26869141 31.60986328 50.27832031 C35.89296632 50.31831384 40.17535813 50.38409835 44.45800781 50.45751953 C46.30850053 50.48567498 48.15911229 50.50691646 50.00976562 50.52099609 C52.6763988 50.5425012 55.34160884 50.5891886 58.0078125 50.640625 C58.82992218 50.64185364 59.65203186 50.64308228 60.49905396 50.64434814 C65.82035187 50.77881072 68.89869013 51.73037393 73.125 55.25 C78.27130692 62.34835438 77.3418779 70.06214408 77.375 78.5 C77.4059375 80.44712891 77.4059375 80.44712891 77.4375 82.43359375 C77.46592477 89.40476788 77.31388211 94.98585392 74.125 101.25 C66.40437169 108.5940123 56.06961597 107.34026993 46 107.375 C44.90945313 107.38188843 44.90945313 107.38188843 43.796875 107.38891602 C38.19434732 107.37322793 32.68912862 106.8859418 27.125 106.25 C27.14071045 107.40000488 27.1564209 108.55000977 27.17260742 109.73486328 C27.22706868 114.01750637 27.26140886 118.30011906 27.28979492 122.58300781 C27.30484471 124.43364619 27.32528933 126.28424911 27.35131836 128.13476562 C27.3878698 130.80087045 27.40476454 133.46650208 27.41796875 136.1328125 C27.43345261 136.95492218 27.44893646 137.77703186 27.46488953 138.62405396 C27.46653015 144.27413738 26.5791687 148.55936192 22.625 152.89453125 C15.95879394 158.08514482 9.70009245 157.50151519 1.61132812 157.54516602 C0.12750702 157.55666725 -1.35627332 157.57709 -2.83984375 157.60668945 C-4.99247121 157.6496173 -7.14387125 157.66556951 -9.296875 157.67578125 C-10.58174805 157.69036377 -11.86662109 157.70494629 -13.19042969 157.7199707 C-18.99697015 156.97934054 -22.38237596 154.9087749 -26.27441406 150.58349609 C-28.36378808 146.23201459 -28.47743364 142.68226624 -28.484375 137.9140625 C-28.50091125 137.03471039 -28.51744751 136.15535828 -28.53448486 135.24935913 C-28.58282914 132.45783408 -28.60430535 129.66685324 -28.625 126.875 C-28.65317108 124.97523324 -28.6831001 123.07549168 -28.71484375 121.17578125 C-28.78858434 116.533899 -28.83824173 111.89231645 -28.875 107.25 C-29.535 107.91 -30.195 108.57 -30.875 109.25 C-30.875 108.59 -30.875 107.93 -30.875 107.25 C-31.9894751 107.24589111 -33.1039502 107.24178223 -34.25219727 107.23754883 C-38.41053712 107.2156794 -42.56794123 107.16130983 -46.72583008 107.09741211 C-48.52098583 107.0742999 -50.31627588 107.05985236 -52.11157227 107.05444336 C-54.70152821 107.04510371 -57.28939178 107.00400753 -59.87890625 106.95703125 C-60.67398087 106.9609639 -61.46905548 106.96489655 -62.28822327 106.96894836 C-67.98465948 106.82176757 -71.80224259 105.32169351 -75.875 101.25 C-79.85119649 94.17399319 -79.32203538 86.69790332 -79.25 78.75 C-79.26160156 77.46996094 -79.27320313 76.18992187 -79.28515625 74.87109375 C-79.26378818 67.98345107 -78.99823116 62.44428424 -75.875 56.25 C-70.58996788 51.22277433 -66.76391571 51.11128077 -59.7109375 51.15234375 C-58.80372955 51.1537587 -57.89652161 51.15517365 -56.96182251 51.15663147 C-54.05784845 51.16223904 -51.15395085 51.17479282 -48.25 51.1875 C-46.28385528 51.19251402 -44.31770935 51.1970771 -42.3515625 51.20117188 C-37.5260121 51.21221094 -32.70051903 51.22948065 -27.875 51.25 C-27.89594727 50.03940918 -27.91689453 48.82881836 -27.93847656 47.58154297 C-28.0110654 43.07531639 -28.05686835 38.56914116 -28.09472656 34.0625 C-28.11479906 32.11482034 -28.14206332 30.16720063 -28.17675781 28.21972656 C-28.22546852 25.41456279 -28.24801241 22.61019813 -28.265625 19.8046875 C-28.28627014 18.93883026 -28.30691528 18.07297302 -28.32818604 17.18087769 C-28.33020406 11.70107932 -27.53984361 8.59136532 -23.875 4.25 C-17.04209615 -0.96458451 -8.18673959 0.03658878 0 0 Z " fill="#54D1E9" transform="translate(224.875,89.75)"/>
<path d="M0 0 C6.05896548 -0.75902073 12.2416788 -1.42267721 18 1 C22.52769996 5.39285437 24.65202003 11.66594505 26.94287109 17.42431641 C28.54223638 21.3211533 30.49469857 25.01622049 32.4375 28.75 C34.80495146 33.43041682 36.97257509 38.16394059 39 43 C45.43399136 31.33032514 51.20781783 19.37853883 56.89013672 7.32739258 C57.90220449 5.205078 58.94064923 3.09903912 60 1 C62.79173055 0.97309896 65.58320348 0.95320947 68.375 0.9375 C69.1690625 0.92912109 69.963125 0.92074219 70.78125 0.91210938 C76.7734375 0.88671875 76.7734375 0.88671875 79 2 C79 28.73 79 55.46 79 83 C75.94730154 84.52634923 73.24154311 83.83794444 69.875 83.5625 C68.59367187 83.46066406 67.31234375 83.35882813 65.9921875 83.25390625 C64.51105469 83.12822266 64.51105469 83.12822266 63 83 C62.67 83.66 62.34 84.32 62 85 C61.67 68.17 61.34 51.34 61 34 C54.14211813 46.85566593 54.14211813 46.85566593 47.62890625 59.86914062 C46.28463054 62.60395254 45.17114859 64.82885141 43 67 C40.94140625 67.265625 40.94140625 67.265625 38.5625 67.25 C37.38880859 67.25773437 37.38880859 67.25773437 36.19140625 67.265625 C34 67 34 67 31 65 C30.62057353 63.34321865 30.29445639 61.67397262 30 60 C29.1612114 58.0731086 28.25953947 56.17293284 27.3125 54.296875 C26.51199219 52.70359375 26.51199219 52.70359375 25.6953125 51.078125 C25.13585937 49.97984375 24.57640625 48.8815625 24 47.75 C23.16082031 46.079375 23.16082031 46.079375 22.3046875 44.375 C20.10688509 39.3810401 20.10688509 39.3810401 17 35 C16.67 35.66 16.34 36.32 16 37 C16.66 37.33 17.32 37.66 18 38 C17.34 38 16.68 38 16 38 C16.33 52.85 16.66 67.7 17 83 C9.99072041 83.70092796 5.59008135 84.09834689 -1 83 C-1.0231363 72.47345762 -1.04092168 61.94692125 -1.05181217 51.42035866 C-1.05703817 46.53283416 -1.06413071 41.64532701 -1.07543945 36.7578125 C-1.08627835 32.04403894 -1.09227897 27.3302821 -1.09487724 22.61649704 C-1.09672968 20.8151053 -1.10034683 19.01371451 -1.10573006 17.21232986 C-1.11295376 14.69573209 -1.11399037 12.17920407 -1.11352539 9.66259766 C-1.11712067 8.91237839 -1.12071594 8.16215912 -1.12442017 7.38920593 C-1.11405216 2.22810432 -1.11405216 2.22810432 0 0 Z " fill="#011A4D" transform="translate(401,133)"/>
<path d="M0 0 C6.84467115 6.91499311 11 13.14571865 11 23 C5.72 23.66 0.44 24.32 -5 25 C-5.53625 23.783125 -6.0725 22.56625 -6.625 21.3125 C-9.02919848 16.46975736 -12.10739711 13.44630144 -17 11 C-24.44475339 10.31088019 -29.9883734 10.36603783 -36 15 C-41.77138124 20.77138124 -43.18783353 27.04247794 -43.375 34.9375 C-43.20541036 42.13735099 -41.9639432 47.60086754 -38.375 53.8125 C-33.85732994 57.9735119 -28.58773449 60.19142422 -22.4375 60.5 C-16.8140866 60.22424593 -12.04034479 58.10835629 -8.125 54.0625 C-6.7156393 51.57562022 -6.7156393 51.57562022 -5 47 C0.28 47.66 5.56 48.32 11 49 C12.49803193 53.49409578 10.50029614 56.07802342 8.515625 60.2109375 C3.75597965 68.96966632 -2.99082357 73.98473661 -12.5 76.8125 C-22.72273832 79.25980398 -33.774217 78.37262218 -43.13671875 73.30078125 C-52.36229728 66.89447911 -58.67666251 58.73574897 -61.5859375 47.796875 C-63.73756128 33.26326535 -62.40411008 19.96988862 -53.875 7.75 C-51.8046875 4.984375 -51.8046875 4.984375 -50 3 C-49.34 3 -48.68 3 -48 3 C-48 2.34 -48 1.68 -48 1 C-33.67242167 -7.9688384 -14.45279911 -10.94137961 0 0 Z " fill="#00194E" transform="translate(712,140)"/>
<path d="M0 0 C0 27.39 0 54.78 0 83 C-2.85195222 84.42597611 -5.32461175 84.1320252 -8.5 84.125 C-9.6653125 84.12757813 -10.830625 84.13015625 -12.03125 84.1328125 C-15 84 -15 84 -17 83 C-17 82.34 -17 81.68 -17 81 C-19.76276177 81.52268466 -22.3260876 82.10869587 -25 83 C-25.33 83.66 -25.66 84.32 -26 85 C-34.4629632 85.4770355 -41.07472981 84.56652281 -48.25 79.875 C-56.30076611 71.45828998 -58.45149933 61.906051 -58.24609375 50.5 C-57.64940943 42.01382307 -54.85417265 34.30067735 -49 28 C-42.91665434 23.28320301 -36.81363258 22.43090217 -29.2734375 22.3359375 C-26 23 -26 23 -18 28 C-17.67 18.76 -17.34 9.52 -17 0 C-13.349375 -0.2784375 -13.349375 -0.2784375 -9.625 -0.5625 C-8.47765381 -0.65446655 -8.47765381 -0.65446655 -7.30712891 -0.74829102 C-2.22222222 -1.11111111 -2.22222222 -1.11111111 0 0 Z M-38 41 C-41.30259818 46.66695824 -42.05367194 52.81585344 -40.4609375 59.140625 C-39.08276222 63.2297165 -37.63696733 66.47432824 -34 69 C-28.41529957 70.58057559 -25.0311024 69.80580711 -20 67 C-15.70538651 62.44141499 -16.00768154 56.98391808 -16 51 C-16.38662615 46.70493493 -17.55505027 43.63371629 -20.0625 40.0625 C-26.1880446 35.76158571 -32.48228344 35.61365764 -38 41 Z " fill="#001A4F" transform="translate(610,133)"/>
<path d="M0 0 C1.4883163 0.00574353 2.97660671 0.01875734 4.46484375 0.03515625 C7.08421875 0.05578125 9.70359375 0.07640625 12.40234375 0.09765625 C12.89734375 14.45265625 12.89734375 14.45265625 13.40234375 29.09765625 C15.05234375 27.77765625 16.70234375 26.45765625 18.40234375 25.09765625 C23.51310601 21.8359096 29.57635522 22.54711427 35.40234375 23.09765625 C40.83560447 24.54248832 44.18650714 27.39416677 47.39453125 31.92578125 C50.40418217 38.41169564 50.68228001 44.8340392 50.59765625 51.84765625 C50.59482635 52.74637451 50.59199646 53.64509277 50.58908081 54.57104492 C50.577975 57.4133899 50.5528888 60.25540811 50.52734375 63.09765625 C50.51730152 65.03645375 50.50817786 66.97525624 50.5 68.9140625 C50.4780672 73.64205107 50.44360459 78.36979845 50.40234375 83.09765625 C46.89548417 84.05377174 43.79662394 84.19976799 40.15234375 84.16015625 C39.0746875 84.15113281 37.99703125 84.14210938 36.88671875 84.1328125 C35.65695312 84.11541016 35.65695312 84.11541016 34.40234375 84.09765625 C32.896864 81.08669675 33.34811979 78.3522285 33.41015625 75 C33.4276953 73.54362703 33.44460135 72.08724633 33.4609375 70.63085938 C33.49169562 68.34230913 33.52695548 66.054151 33.57373047 63.76586914 C33.94849858 51.59261286 33.94849858 51.59261286 30.40234375 40.09765625 C25.99422169 37.85215307 22.6736051 37.70472093 17.96484375 39.16015625 C14.93709468 41.44942994 14.4724206 42.49421925 13.40234375 46.09765625 C13.16999806 48.98632165 13.03089662 51.78906852 12.98828125 54.6796875 C12.9689151 55.49386642 12.94954895 56.30804535 12.92959595 57.14689636 C12.87005623 59.73454477 12.82351792 62.32223828 12.77734375 64.91015625 C12.73914035 66.66994074 12.70008725 68.42970699 12.66015625 70.18945312 C12.56437593 74.49203859 12.4802509 78.79471155 12.40234375 83.09765625 C8.92984921 84.83390352 4.9721205 84.1086135 1.15234375 84.03515625 C-1.56018638 83.90109819 -1.56018638 83.90109819 -3.59765625 85.09765625 C-4.50570676 80.46262148 -4.74054241 75.97918362 -4.72705078 71.2722168 C-4.7288031 70.51216843 -4.73055542 69.75212006 -4.73236084 68.96903992 C-4.73673799 66.47412793 -4.73385748 63.97928762 -4.73046875 61.484375 C-4.73114263 59.74656663 -4.73211336 58.00875836 -4.73336792 56.27095032 C-4.73483898 52.63887632 -4.73270805 49.00682698 -4.72802734 45.37475586 C-4.72230911 40.7093928 -4.72562598 36.044087 -4.73159981 31.37872601 C-4.73520329 27.79551253 -4.73406819 24.21231277 -4.73147202 20.62909889 C-4.73080325 18.90782477 -4.73162941 17.18654941 -4.73395157 15.46527672 C-4.73647689 13.06885823 -4.73264023 10.67253444 -4.72705078 8.27612305 C-4.72907501 7.55978699 -4.73109924 6.84345093 -4.73318481 6.10540771 C-4.70721305 0.12777451 -4.70721305 0.12777451 0 0 Z " fill="#001A4F" transform="translate(737.59765625,132.90234375)"/>
<path d="M0 0 C4.90801218 3.9041006 8.31829435 9.12831292 9.41503906 15.35717773 C9.61972539 17.95149977 9.70902865 20.52296817 9.75 23.125 C9.77892334 24.06553223 9.80784668 25.00606445 9.83764648 25.97509766 C10.11942877 36.3128247 10.09823486 46.65964708 10 57 C9.34 57 8.68 57 8 57 C7.505 57.99 7.505 57.99 7 59 C7 58.34 7 57.68 7 57 C6.39671875 57.08378906 5.7934375 57.16757813 5.171875 57.25390625 C3.97304688 57.40666016 3.97304688 57.40666016 2.75 57.5625 C1.56664062 57.71912109 1.56664062 57.71912109 0.359375 57.87890625 C-2.00532874 58.00027349 -3.7511037 57.69633257 -6 57 C-6.495 55.02 -6.495 55.02 -7 53 C-7.53109375 53.34933594 -8.0621875 53.69867188 -8.609375 54.05859375 C-9.66898438 54.74115234 -9.66898438 54.74115234 -10.75 55.4375 C-11.44609375 55.88996094 -12.1421875 56.34242188 -12.859375 56.80859375 C-18.69252134 60.05514417 -25.35031682 59.66224428 -31.625 57.9375 C-36.41727102 56.2046546 -39.29093174 53.25710726 -42 49 C-43.81020278 43.56939165 -43.70097747 38.90256228 -41.3125 33.75 C-37.79620383 27.48927755 -32.73866152 24.99329551 -26 23 C-22.6789148 22.41457367 -19.3590558 22.09371128 -16 21.8125 C-15.12988281 21.73064453 -14.25976562 21.64878906 -13.36328125 21.56445312 C-11.24308794 21.36641309 -9.12164801 21.18179444 -7 21 C-7.37311204 16.18128802 -7.37311204 16.18128802 -9.5625 12.0625 C-13.07672271 10.53065933 -16.22972094 10.28481305 -20 11 C-22.20097118 12.72508552 -23.56880185 14.38233778 -25.15625 16.65625 C-28.09157288 18.79555312 -30.66478636 18.04300321 -34.1875 17.6875 C-35.45980469 17.56761719 -36.73210938 17.44773438 -38.04296875 17.32421875 C-39.01878906 17.21722656 -39.99460937 17.11023438 -41 17 C-40.06229404 10.70197487 -38.81121943 6.49744425 -34 2 C-23.89584029 -4.26739131 -10.69613631 -5.63978096 0 0 Z M-15.375 31.6875 C-21.13485023 32.85894946 -21.13485023 32.85894946 -26 36 C-27.11703004 38.90427811 -27.2453571 40.32054957 -26.1875 43.25 C-25.10600632 45.15074924 -25.10600632 45.15074924 -23 46 C-18.17900335 46.58816159 -14.83235157 46.44590263 -10.5 44.125 C-7.96060082 42.24775337 -7.96060082 42.24775337 -7 40 C-6.66666667 36.5 -6.66666667 36.5 -7 33 C-10.574842 30.616772 -11.30670429 30.9017059 -15.375 31.6875 Z " fill="#001A4F" transform="translate(841,159)"/>
<path d="M0 0 C1.28132812 0.10183594 2.56265625 0.20367187 3.8828125 0.30859375 C4.87023437 0.39238281 5.85765625 0.47617188 6.875 0.5625 C6.875 2.2125 6.875 3.8625 6.875 5.5625 C7.57625 5.129375 8.2775 4.69625 9 4.25 C9.94875 3.693125 10.8975 3.13625 11.875 2.5625 C12.7 2.005625 13.525 1.44875 14.375 0.875 C20.96964056 -1.59799021 28.84895113 -1.75340939 35.375 1.125 C39.3999667 3.59602386 41.9453069 6.24068852 43.875 10.5625 C46.30224756 21.2446093 46.11904645 32.05710343 46 42.9375 C45.98993716 44.55989023 45.98081722 46.18228659 45.97265625 47.8046875 C45.95093419 51.72411383 45.91659219 55.64323625 45.875 59.5625 C44.555 60.2225 43.235 60.8825 41.875 61.5625 C41.875 60.9025 41.875 60.2425 41.875 59.5625 C40.2495692 59.70345064 38.62465949 59.85042087 37 60 C36.09507812 60.08121094 35.19015625 60.16242188 34.2578125 60.24609375 C31.86389139 60.43239285 31.86389139 60.43239285 29.875 61.5625 C28.23210148 58.27670296 28.71740877 54.6244508 28.69921875 51.01171875 C28.6760175 49.26365987 28.65190003 47.51561296 28.62695312 45.76757812 C28.59185568 43.00911491 28.56250531 40.25109084 28.54907227 37.49243164 C28.53357628 34.83165138 28.49335413 32.17215811 28.44921875 29.51171875 C28.45112717 28.69072189 28.45303558 27.86972504 28.45500183 27.02384949 C28.36960631 23.01594428 28.16481378 21.01826508 25.96191406 17.55395508 C23.19684557 14.9153655 21.529682 14.6662735 17.83984375 14.42578125 C14.83238362 14.63504786 13.14528219 15.62608284 10.875 17.5625 C8.16998308 21.38546406 8.5783577 25.70364989 8.56640625 30.1953125 C8.54126359 31.90495158 8.51586533 33.61458692 8.49023438 35.32421875 C8.46140141 38.01480274 8.4373763 40.70532215 8.41870117 43.39599609 C8.39713244 45.99609475 8.35772144 48.59546391 8.31640625 51.1953125 C8.31629044 52.00364532 8.31617462 52.81197815 8.3160553 53.64480591 C8.27563477 55.91064453 8.27563477 55.91064453 7.875 59.5625 C4.875 61.5625 4.875 61.5625 1.875 61.5625 C1.875 60.9025 1.875 60.2425 1.875 59.5625 C-1.425 60.2225 -4.725 60.8825 -8.125 61.5625 C-8.86433456 57.59980593 -9.24780883 53.86153152 -9.23852539 49.83251953 C-9.23844986 48.73183136 -9.23837433 47.63114319 -9.23829651 46.49710083 C-9.23313522 45.32501068 -9.22797394 44.15292053 -9.22265625 42.9453125 C-9.2212413 41.73301971 -9.21982635 40.52072693 -9.21836853 39.271698 C-9.21278345 35.41027327 -9.20023361 31.54890712 -9.1875 27.6875 C-9.18248308 25.06510501 -9.1779205 22.4427091 -9.17382812 19.8203125 C-9.16281889 13.40102178 -9.14609555 6.98176507 -9.125 0.5625 C-6.07230154 -0.96384923 -3.36654311 -0.27544444 0 0 Z " fill="#001A4D" transform="translate(902.125,156.4375)"/>
<path d="M0 0 C5.82611267 4.9710859 9.71521094 10.40869633 11 18 C11.06686548 20.26473391 11.08532726 22.53126921 11.0625 24.796875 C11.05347656 25.96057617 11.04445313 27.12427734 11.03515625 28.32324219 C11.02355469 29.20657227 11.01195312 30.08990234 11 31 C10.10168457 30.98952637 9.20336914 30.97905273 8.27783203 30.96826172 C4.94935553 30.9342053 1.62106378 30.90911382 -1.70751953 30.89013672 C-3.14895547 30.88007037 -4.59037095 30.8664162 -6.03173828 30.84912109 C-8.10193934 30.82489988 -10.17187076 30.81352359 -12.2421875 30.8046875 C-13.4885498 30.79421387 -14.73491211 30.78374023 -16.01904297 30.77294922 C-19.11771631 30.68347508 -19.11771631 30.68347508 -21 33 C-21.66 32.67 -22.32 32.34 -23 32 C-23 31.34 -23 30.68 -23 30 C-24.32 30.66 -25.64 31.32 -27 32 C-26.59988018 33.27613973 -26.17907912 34.54580367 -25.75 35.8125 C-25.51796875 36.52019531 -25.2859375 37.22789062 -25.046875 37.95703125 C-23.72800943 40.53078757 -22.50909758 41.57194978 -20 43 C-17.54876183 43.39762111 -17.54876183 43.39762111 -15 43.25 C-14.154375 43.23453125 -13.30875 43.2190625 -12.4375 43.203125 C-9.13798402 42.94551771 -9.13798402 42.94551771 -6 42 C-5.34 40.68 -4.68 39.36 -4 38 C0.95 38 5.9 38 11 38 C9.80148546 43.99257268 7.90721659 48.5276235 3.171875 52.5546875 C-4.65509166 57.76239366 -13.29931516 59.24009564 -22.51171875 57.53515625 C-30.46199568 55.47758075 -36.56043831 51.86965574 -40.875 44.75 C-45.25435489 35.87292928 -45.93761443 26.67667442 -44 17 C-41.00694815 8.55316575 -37.00031576 2.4647841 -29.234375 -2.01953125 C-20.17336176 -6.18835877 -8.3631027 -5.30900035 0 0 Z M-26.3125 15 C-27.21671985 17.27798014 -27.21671985 17.27798014 -27 21 C-19.74 21 -12.48 21 -5 21 C-6.01950475 14.8829715 -6.45977456 12.97269726 -11 9 C-17.67098196 7.40476518 -22.50946405 9.20489759 -26.3125 15 Z " fill="#00194E" transform="translate(534,160)"/>
<path d="M0 0 C5.28 0 10.56 0 16 0 C17.03444628 3.10333883 17.12083424 5.22876249 17.11352539 8.48120117 C17.11344986 9.60213669 17.11337433 10.7230722 17.11329651 11.87797546 C17.10813522 13.08742325 17.10297394 14.29687103 17.09765625 15.54296875 C17.0962413 16.78170242 17.09482635 18.0204361 17.09336853 19.29670715 C17.08871602 22.58631537 17.0797339 25.8758746 17.06866455 29.16546631 C17.05842629 32.52371623 17.05386574 35.88197333 17.04882812 39.24023438 C17.03779145 45.82684212 17.02104767 52.41341705 17 59 C11.93157925 61.53421037 5.65411589 59.37694106 0 59 C0 39.53 0 20.06 0 0 Z " fill="#001A50" transform="translate(623,157)"/>
<path d="M0 0 C5.28 0 10.56 0 16 0 C16 19.8 16 39.6 16 60 C10.72 59.67 5.44 59.34 0 59 C0 39.53 0 20.06 0 0 Z " fill="#001A51" transform="translate(864,157)"/>
<path d="M0 0 C0.33 0.66 0.66 1.32 1 2 C1.804375 2.309375 2.60875 2.61875 3.4375 2.9375 C6 4 6 4 8 7 C8.4375 10.375 8.4375 10.375 8 14 C5.5625 16.875 5.5625 16.875 3 19 C2.67 19.33 2.34 19.66 2 20 C-2.55135866 20.46285003 -5.71394489 20.69345897 -9.5 17.9375 C-12 15 -12 15 -12.5625 11.5 C-11.94791683 7.67592691 -11.61973058 5.8578879 -9 3 C-6.06976257 1.70633135 -3.09847669 0.79897827 0 0 Z " fill="#001A4E" transform="translate(633,130)"/>
<path d="M0 0 C3.66182182 2.64897749 4.84097547 4.01051403 5.5625 8.5 C4.91877781 12.50538252 3.84054174 14.15945826 1 17 C-2.20173254 18.60086627 -5.52577059 18.49917089 -9 18 C-11.8100346 16.20636089 -13.50940468 14.98119065 -15 12 C-15.25225938 8.13202291 -15.39446566 5.1563411 -13 2 C-8.41193646 -1.09427541 -5.31215291 -1.54535358 0 0 Z " fill="#011C50" transform="translate(877,132)"/>
<path d="M0 0 C5.28 0 10.56 0 16 0 C16.96813254 2.90439761 17.12144834 4.7281824 17.11352539 7.74682617 C17.11344986 8.70759567 17.11337433 9.66836517 17.11329651 10.6582489 C17.10813522 11.69270645 17.10297394 12.727164 17.09765625 13.79296875 C17.0962413 14.85413406 17.09482635 15.91529938 17.09336853 17.00862122 C17.08776606 20.40160935 17.07521314 23.79453177 17.0625 27.1875 C17.05748532 29.48632717 17.05292236 31.78515538 17.04882812 34.08398438 C17.03779583 39.72267872 17.0210553 45.36133466 17 51 C16.34 51 15.68 51 15 51 C15 34.83 15 18.66 15 2 C10.71 2 6.42 2 2 2 C2 20.15 2 38.3 2 57 C6.29 57 10.58 57 15 57 C15 57.66 15 58.32 15 59 C9.37467318 60.29815234 6.27437361 59.69715262 0 59 C0 39.53 0 20.06 0 0 Z " fill="#001236" transform="translate(623,157)"/>
<path d="M0 0 C0.66 0.33 1.32 0.66 2 1 C2 28.39 2 55.78 2 84 C-0.86633795 85.43316898 -3.37235501 85.13200361 -6.5625 85.125 C-8.32787109 85.12886719 -8.32787109 85.12886719 -10.12890625 85.1328125 C-13 85 -13 85 -14 84 C-14.04080783 82.00041636 -14.04254356 79.99954746 -14 78 C-13.67 79.32 -13.34 80.64 -13 82 C-8.71 82 -4.42 82 0 82 C0 55.93 0 29.86 0 3 C-4.29 3 -8.58 3 -13 3 C-13 11.91 -13 20.82 -13 30 C-13.33 30 -13.66 30 -14 30 C-14 20.76 -14 11.52 -14 2 C-9.38 2 -4.76 2 0 2 C0 1.34 0 0.68 0 0 Z " fill="#04153A" transform="translate(608,132)"/>
<path d="M0 0 C5.21820669 3.13752934 7.83483808 7.20525122 9.55078125 12.96386719 C10.7088337 17.73002654 10.75423473 22.30402562 10.6953125 27.1875 C10.6924826 28.08621826 10.68965271 28.98493652 10.68673706 29.91088867 C10.67563125 32.75323365 10.65054505 35.59525186 10.625 38.4375 C10.61495777 40.3762975 10.60583411 42.31509999 10.59765625 44.25390625 C10.57572345 48.98189482 10.54126084 53.7096422 10.5 58.4375 C6.99314042 59.39361549 3.89428019 59.53961174 0.25 59.5 C-0.82765625 59.49097656 -1.9053125 59.48195312 -3.015625 59.47265625 C-3.83546875 59.46105469 -4.6553125 59.44945312 -5.5 59.4375 C-7.06544436 56.30661129 -6.50148591 53.01035977 -6.37890625 49.5859375 C-6.35529526 48.81190582 -6.33168427 48.03787415 -6.30735779 47.24038696 C-6.23068562 44.7642397 -6.14667684 42.28840241 -6.0625 39.8125 C-6.00928285 38.13543192 -5.95654243 36.45834863 -5.90429688 34.78125 C-5.77506572 30.66646977 -5.63925354 26.55195275 -5.5 22.4375 C-5.17 22.4375 -4.84 22.4375 -4.5 22.4375 C-4.5 33.6575 -4.5 44.8775 -4.5 56.4375 C-0.21 56.4375 4.08 56.4375 8.5 56.4375 C8.45561485 50.76270591 8.38553954 45.08899995 8.29248047 39.41479492 C8.26439628 37.48780007 8.2431198 35.56069271 8.22900391 33.63354492 C8.20739943 30.85016802 8.16066189 28.0681261 8.109375 25.28515625 C8.10814636 24.43478287 8.10691772 23.58440948 8.10565186 22.70826721 C7.93176643 15.4757258 6.22005694 9.09121408 0.9375 3.9375 C-3.06237862 1.47603624 -6.25521573 1.25092953 -10.875 1.1875 C-11.99648438 1.16171875 -13.11796875 1.1359375 -14.2734375 1.109375 C-17.81200927 1.46922976 -19.58549348 2.48076418 -22.5 4.4375 C-23.16 4.4375 -23.82 4.4375 -24.5 4.4375 C-25.16 5.7575 -25.82 7.0775 -26.5 8.4375 C-26.83 7.7775 -27.16 7.1175 -27.5 6.4375 C-21.16225122 -2.58160404 -10.05239805 -4.43375731 0 0 Z " fill="#020F31" transform="translate(777.5,157.5625)"/>
<path d="M0 0 C1.98 0 3.96 0 6 0 C6 0.33 6 0.66 6 1 C4.35 1 2.7 1 1 1 C1 19.15 1 37.3 1 56 C5.62 56 10.24 56 15 56 C15 38.84 15 21.68 15 4 C15.33 4 15.66 4 16 4 C16 22.15 16 40.3 16 59 C10.72 58.67 5.44 58.34 0 58 C0 38.86 0 19.72 0 0 Z " fill="#000723" transform="translate(864,158)"/>
<path d="M0 0 C3.63 0 7.26 0 11 0 C12.49803193 4.49409578 10.50029614 7.07802342 8.515625 11.2109375 C3.75597965 19.96966632 -2.99082357 24.98473661 -12.5 27.8125 C-22.04919788 30.09855968 -30.62671624 28.80505906 -40 26 C-42.421875 24.39453125 -42.421875 24.39453125 -44 23 C-43.67 22.34 -43.34 21.68 -43 21 C-42.41992188 21.27714844 -41.83984375 21.55429688 -41.2421875 21.83984375 C-31.21836564 26.48785356 -20.71745541 27.92164004 -10.0625 24.25 C-6.15747645 22.67448617 -3.145623 20.84120787 0 18 C0.66 18 1.32 18 2 18 C2.66 16.35 3.32 14.7 4 13 C4.66 13 5.32 13 6 13 C6.66 9.37 7.32 5.74 8 2 C5.36 1.67 2.72 1.34 0 1 C0 0.67 0 0.34 0 0 Z " fill="#021236" transform="translate(712,189)"/>
<path d="M0 0 C0.33 0 0.66 0 1 0 C1 2.31 1 4.62 1 7 C1.99 7.33 2.98 7.66 4 8 C3.34 8 2.68 8 2 8 C2.33 22.85 2.66 37.7 3 53 C-8.25 54.125 -8.25 54.125 -13 53 C-12.67 52.34 -12.34 51.68 -12 51 C-8.04 51 -4.08 51 0 51 C0 34.17 0 17.34 0 0 Z " fill="#02143C" transform="translate(415,163)"/>
<path d="M0 0 C2.56930516 2.29638889 3.90223581 4.52197541 5.33984375 7.640625 C5.76330078 8.54683594 6.18675781 9.45304688 6.62304688 10.38671875 C7.05681641 11.33160156 7.49058594 12.27648437 7.9375 13.25 C10.74388717 19.31718186 13.57875342 25.25294078 17 31 C20.28743547 31.66923762 20.28743547 31.66923762 24 31 C26.19977428 28.2925855 27.4752681 26.10057212 29 23 C29.69420146 21.63485112 30.38961635 20.27031891 31.0859375 18.90625 C33.09088945 14.9535927 35.05278992 10.98139232 37 7 C37.97624228 9.58270277 38.10355108 10.71850248 37.13549805 13.35009766 C36.45547729 14.61926025 36.45547729 14.61926025 35.76171875 15.9140625 C35.27123047 16.83960938 34.78074219 17.76515625 34.27539062 18.71875 C33.48938477 20.15734375 33.48938477 20.15734375 32.6875 21.625 C32.17509766 22.59179688 31.66269531 23.55859375 31.13476562 24.5546875 C27.31643562 31.68356438 27.31643562 31.68356438 25 34 C22.94140625 34.265625 22.94140625 34.265625 20.5625 34.25 C19.38880859 34.25773437 19.38880859 34.25773437 18.19140625 34.265625 C16 34 16 34 13 32 C12.62279338 30.34271184 12.29622445 28.67366065 12 27 C11.15022063 25.09555173 10.23673028 23.21884235 9.27734375 21.3671875 C8.73916016 20.31402344 8.20097656 19.26085937 7.64648438 18.17578125 C7.08251953 17.08652344 6.51855469 15.99726563 5.9375 14.875 C4.81610101 12.70857425 3.69994888 10.53942202 2.58984375 8.3671875 C2.09347412 7.40925293 1.59710449 6.45131836 1.08569336 5.46435547 C0 3 0 3 0 0 Z " fill="#031439" transform="translate(419,166)"/>
<path d="M0 0 C3.00060572 2.64759329 4.34887123 5.0128354 5.125 8.875 C5.36258608 13.89013234 5.29929754 18.85910417 5.125 23.875 C4.795 23.875 4.465 23.875 4.125 23.875 C4.01542969 22.77800781 3.90585937 21.68101562 3.79296875 20.55078125 C3.63344334 19.09628484 3.47325187 17.64186137 3.3125 16.1875 C3.24224609 15.46626953 3.17199219 14.74503906 3.09960938 14.00195312 C2.60241135 9.64649842 1.91020238 6.42476774 -0.875 2.875 C-3.46622743 1.98841534 -3.46622743 1.98841534 -5.875 1.875 C-5.875 1.215 -5.875 0.555 -5.875 -0.125 C-12.84466821 1.16390304 -12.84466821 1.16390304 -17.875 5.875 C-20.62003415 11.91407514 -20.76062415 17.86568894 -18.625 24.0625 C-17.21937838 27.47230938 -15.36211014 30.1306026 -12.875 32.875 C-16.04533042 32.53532174 -16.87382607 31.87630809 -19.0625 29.4375 C-22.82901806 24.11242274 -23.24946235 18.02234712 -22.66796875 11.58203125 C-21.60355711 6.43903297 -19.49129147 3.49129147 -15.875 -0.125 C-10.75703322 -3.31445756 -5.39022869 -2.10921992 0 0 Z " fill="#011035" transform="translate(589.875,170.125)"/>
<path d="M0 0 C0.91116273 9.33098129 0.91116273 9.33098129 -1.23046875 13.25390625 C-3.71299095 16.19002509 -5.30121745 17.76707248 -9 19 C-13.85808567 19.23506866 -17.62534318 19.38617645 -22 17 C-23.60725635 13.78548731 -23.05748185 10.56387464 -23 7 C-22.34 6.67 -21.68 6.34 -21 6 C-20.92652344 6.95712891 -20.92652344 6.95712891 -20.8515625 7.93359375 C-20.77679687 8.75988281 -20.70203125 9.58617187 -20.625 10.4375 C-20.55539062 11.26121094 -20.48578125 12.08492187 -20.4140625 12.93359375 C-20.27742187 13.61550781 -20.14078125 14.29742187 -20 15 C-16.55611807 16.72194097 -12.77311176 16.37796284 -9 16 C-5.23601432 14.2880813 -5.23601432 14.2880813 -3 11 C-2.95977609 8.6670134 -2.95679753 6.33293334 -3 4 C-6.34505872 2.32747064 -9.72575789 3.8600017 -13.2734375 4.625 C-15.92190095 4.98925858 -17.49944565 4.85326973 -20 4 C-13.17102353 1.19524181 -7.4413583 0 0 0 Z " fill="#011540" transform="translate(836,188)"/>
<path d="M0 0 C0.99 0.33 1.98 0.66 3 1 C2.0409375 1.6496875 2.0409375 1.6496875 1.0625 2.3125 C-2.46853267 6.91354257 -2.34169613 12.55863186 -1.78125 18.203125 C-1.39409204 20.30331504 -1.39409204 20.30331504 0 23 C2.28524895 24.43088211 2.28524895 24.43088211 5 25 C5.721875 25.37125 6.44375 25.7425 7.1875 26.125 C12.75846927 27.85819044 18.14280625 27.79594018 23.5 25.5 C24.325 25.005 25.15 24.51 26 24 C26.66 24 27.32 24 28 24 C28 24.66 28 25.32 28 26 C22.52092166 29.80491552 17.61669668 30.61849193 11 30 C4.75043865 28.84737363 1.03141852 26.70646346 -2.90625 21.71875 C-5.4144339 17.77731816 -5.6092972 13.52162663 -5 9 C-3.80090026 5.83873704 -2.42361204 2.42361204 0 0 Z " fill="#021239" transform="translate(803,188)"/>
<path d="M0 0 C0.33 0 0.66 0 1 0 C1.96077538 7.83813962 2.21452887 15.60767446 2.25 23.5 C2.270625 24.67820313 2.29125 25.85640625 2.3125 27.0703125 C2.31765625 28.19179687 2.3228125 29.31328125 2.328125 30.46875 C2.34214355 31.99145508 2.34214355 31.99145508 2.35644531 33.54492188 C2.18000488 34.76018555 2.18000488 34.76018555 2 36 C-1 38 -1 38 -4 38 C-4 37.34 -4 36.68 -4 36 C-7.3 36.66 -10.6 37.32 -14 38 C-14.33 36.68 -14.66 35.36 -15 34 C-14.34 33.01 -13.68 32.02 -13 31 C-13 31.99 -13 32.98 -13 34 C-8.71 34 -4.42 34 0 34 C0 22.78 0 11.56 0 0 Z " fill="#011437" transform="translate(908,180)"/>
<path d="M0 0 C1.89492188 0.01353516 1.89492188 0.01353516 3.828125 0.02734375 C4.79234375 0.03894531 5.7565625 0.05054688 6.75 0.0625 C7.245 1.0525 7.245 1.0525 7.75 2.0625 C6.67621094 2.09988281 5.60242188 2.13726562 4.49609375 2.17578125 C3.0598638 2.24149112 1.62366738 2.30793668 0.1875 2.375 C-0.51697266 2.39755859 -1.22144531 2.42011719 -1.94726562 2.44335938 C-9.74308965 2.83853939 -15.76131187 5.44616796 -21.25 11.0625 C-22.27641519 13.42472826 -22.74975624 15.51125681 -23.25 18.0625 C-19.29 18.0625 -15.33 18.0625 -11.25 18.0625 C-11.58 19.0525 -11.91 20.0425 -12.25 21.0625 C-19.18 20.5675 -19.18 20.5675 -26.25 20.0625 C-25.17771228 13.62877368 -24.17440093 9.66574435 -19.25 5.0625 C-12.82014003 1.0741972 -7.56003215 -0.0700003 0 0 Z " fill="#011137" transform="translate(826.25,155.9375)"/>
<path d="M0 0 C2 2 2 2 3.25 5.1875 C5.63608872 10.87375122 9.07434152 15.51011246 14.875 17.9375 C22.6075043 20.29980207 28.68352555 18.84529562 36 16 C36 16.66 36 17.32 36 18 C35.195625 18.28875 34.39125 18.5775 33.5625 18.875 C30.8673532 19.73262568 30.8673532 19.73262568 30 22 C21.5370368 22.4770355 14.92527019 21.56652281 7.75 16.875 C3.81376342 12.75984357 0.14685967 8.07541431 -0.1328125 2.21875 C-0.08898437 1.4865625 -0.04515625 0.754375 0 0 Z " fill="#021234" transform="translate(554,196)"/>
<path d="M0 0 C5.28 0 10.56 0 16 0 C15.67 18.48 15.34 36.96 15 56 C14.67 56 14.34 56 14 56 C14 38.18 14 20.36 14 2 C11.36 2 8.72 2 6 2 C3.99279077 1.71325582 1.98821313 1.39764263 0 1 C0 0.67 0 0.34 0 0 Z " fill="#001240" transform="translate(864,157)"/>
<path d="M0 0 C0.33 0 0.66 0 1 0 C2.08806442 7.87347404 2.11529603 15.62279003 2.0625 23.5625 C2.05798828 24.85736328 2.05347656 26.15222656 2.04882812 27.48632812 C2.03712601 30.657601 2.02073113 33.82877546 2 37 C1.34 37 0.68 37 0 37 C-0.33 37.66 -0.66 38.32 -1 39 C-1 38.34 -1 37.68 -1 37 C-4.465 37.495 -4.465 37.495 -8 38 C-8.495 36.515 -8.495 36.515 -9 35 C-6.36 35 -3.72 35 -1 35 C-0.67 23.45 -0.34 11.9 0 0 Z " fill="#001030" transform="translate(849,179)"/>
<path d="M0 0 C0.66 0 1.32 0 2 0 C2.01417969 0.94359375 2.02835938 1.8871875 2.04296875 2.859375 C2.48802682 14.83985701 4.83088062 24.49303656 13.44921875 33.37890625 C15 35 15 35 17 38 C11.7103361 36.59979485 8.96817095 33.38603739 6 29 C1.88999648 21.29787545 -0.15090288 14.93938509 -0.0625 6.1875 C-0.05347656 5.02605469 -0.04445313 3.86460937 -0.03515625 2.66796875 C-0.02355469 1.78753906 -0.01195312 0.90710938 0 0 Z " fill="#011033" transform="translate(650,172)"/>
<path d="M0 0 C0.33 0 0.66 0 1 0 C1 12.21 1 24.42 1 37 C-3.29 37 -7.58 37 -12 37 C-12.99 37.495 -12.99 37.495 -14 38 C-14.33 35.69 -14.66 33.38 -15 31 C-14.34 31 -13.68 31 -13 31 C-13 31.99 -13 32.98 -13 34 C-9.04 34 -5.08 34 -1 34 C-0.67 22.78 -0.34 11.56 0 0 Z " fill="#000929" transform="translate(748,180)"/>
<path d="M0 0 C0.66 0.33 1.32 0.66 2 1 C0.75986835 4.72039495 -0.6590431 5.50764862 -3.75 7.875 C-10.18584436 12.99843689 -15.89226088 18.71202894 -21.62841797 24.59619141 C-23.40351103 26.41299188 -25.19961805 28.20829459 -27 30 C-27.66 29.67 -28.32 29.34 -29 29 C-19.43 19.43 -9.86 9.86 0 0 Z " fill="#57C8DE" transform="translate(311,205)"/>
<path d="M0 0 C0.99 0.33 1.98 0.66 3 1 C2.54109375 1.31710938 2.0821875 1.63421875 1.609375 1.9609375 C-3.85566157 6.11712078 -6.48470836 10.29774851 -8 17 C-8.68539203 22.64601453 -8.86817493 28.31833934 -9 34 C-12.16531371 28.75824049 -11.55727577 22.91255999 -11 17 C-9.15957834 9.96086148 -6.15875014 4.10583343 0 0 Z " fill="#011034" transform="translate(677,151)"/>
<path d="M0 0 C0.66 0 1.32 0 2 0 C2.33 0.86625 2.66 1.7325 3 2.625 C6.68452136 8.84262979 12.1007574 12.11142804 19 14 C21.28452807 14.27580863 23.57818383 14.4843786 25.875 14.625 C27.02742187 14.69976562 28.17984375 14.77453125 29.3671875 14.8515625 C30.67042969 14.92503906 30.67042969 14.92503906 32 15 C29.65820867 17.34179133 29.18019135 17.29546326 26 17.3125 C17.0114925 17.06722772 9.53678053 14.22326588 3 8 C0.7271683 4.9458824 0 3.79952223 0 0 Z " fill="#021337" transform="translate(493,201)"/>
<path d="M0 0 C2.06814656 1.8613319 3.30616311 3.51391664 4.75 5.9375 C8.02311806 10.39257736 11.73898437 12.24632812 17 14 C18.89212737 14.22179785 20.78884472 14.40614015 22.6875 14.5625 C23.68136719 14.64628906 24.67523437 14.73007813 25.69921875 14.81640625 C26.45847656 14.87699219 27.21773437 14.93757812 28 15 C25.66055271 17.33944729 25.12400261 17.31880066 21.9375 17.375 C15.30055168 17.21468724 10.14496199 14.81855473 5.125 10.5625 C0 4.38235294 0 4.38235294 0 0 Z " fill="#010F35" transform="translate(668,186)"/>
<path d="M0 0 C4.62 0 9.24 0 14 0 C14 10.23 14 20.46 14 31 C13.67 31 13.34 31 13 31 C13 21.1 13 11.2 13 1 C9.04 1 5.08 1 1 1 C1.04125 2.0725 1.0825 3.145 1.125 4.25 C1.0114175 7.65747485 0.78726636 9.20739631 -1 12 C-2.25 4.5 -2.25 4.5 0 0 Z " fill="#000B2C" transform="translate(735,134)"/>
<path d="M0 0 C5.94 0.33 11.88 0.66 18 1 C18.33 2.32 18.66 3.64 19 5 C17.17662109 4.89171875 17.17662109 4.89171875 15.31640625 4.78125 C13.73177174 4.68748464 12.14713628 4.59373548 10.5625 4.5 C9.76005859 4.45230469 8.95761719 4.40460938 8.13085938 4.35546875 C4.56775887 4.10759125 4.56775887 4.10759125 1 4 C0.34 4 -0.32 4 -1 4 C-0.67 2.68 -0.34 1.36 0 0 Z " fill="#0E284D" transform="translate(401,133)"/>
<path d="M0 0 C0.66 0 1.32 0 2 0 C7.95703125 11.9140625 7.95703125 11.9140625 9.00317383 14.01611328 C9.90022923 15.80143589 10.82352285 17.57351688 11.75 19.34375 C13.07373272 22.15668203 13.27062507 23.93291593 13 27 C9.78341719 23.2050411 7.88864085 18.85015351 5.8125 14.375 C5.44447266 13.59898437 5.07644531 12.82296875 4.69726562 12.0234375 C2 6.2585952 2 6.2585952 2 4 C1.34 4 0.68 4 0 4 C0 2.68 0 1.36 0 0 Z " fill="#02163C" transform="translate(426,151)"/>
<path d="M0 0 C1.28132812 0.10183594 2.56265625 0.20367187 3.8828125 0.30859375 C4.87023437 0.39238281 5.85765625 0.47617188 6.875 0.5625 C6.875 2.2125 6.875 3.8625 6.875 5.5625 C6.545 4.5725 6.215 3.5825 5.875 2.5625 C1.585 2.5625 -2.705 2.5625 -7.125 2.5625 C-7.125 5.8625 -7.125 9.1625 -7.125 12.5625 C-9.125 10.5625 -9.125 10.5625 -9.3203125 8.1796875 C-9.29710937 7.27476562 -9.27390625 6.36984375 -9.25 5.4375 C-9.23195313 4.52742187 -9.21390625 3.61734375 -9.1953125 2.6796875 C-9.17210937 1.98101562 -9.14890625 1.28234375 -9.125 0.5625 C-6.07230154 -0.96384923 -3.36654311 -0.27544444 0 0 Z " fill="#01122F" transform="translate(902.125,156.4375)"/>
<path d="M0 0 C0.33 0 0.66 0 1 0 C2.02284708 7.617491 1.9675604 14.9614434 1.5625 22.625 C1.51029297 23.72457031 1.45808594 24.82414062 1.40429688 25.95703125 C1.27605696 28.63841122 1.14117502 31.31927531 1 34 C0.67 34 0.34 34 0 34 C-0.95254919 26.80296171 -1.15135041 19.75514533 -1.125 12.5 C-1.12886719 11.40429688 -1.13273438 10.30859375 -1.13671875 9.1796875 C-1.13542969 8.14070312 -1.13414062 7.10171875 -1.1328125 6.03125 C-1.13168457 5.08830078 -1.13055664 4.14535156 -1.12939453 3.17382812 C-1 1 -1 1 0 0 Z " fill="#000922" transform="translate(734,160)"/>
<path d="M0 0 C12.54 0 25.08 0 38 0 C38 0.33 38 0.66 38 1 C37.13197754 1.01981934 36.26395508 1.03963867 35.36962891 1.06005859 C32.15273733 1.13809872 28.93622955 1.22478881 25.71972656 1.31738281 C24.32691428 1.35569327 22.93400235 1.39054259 21.54101562 1.421875 C19.54013692 1.46747907 17.53957854 1.52651623 15.5390625 1.5859375 C14.33459473 1.6173584 13.13012695 1.6487793 11.88916016 1.68115234 C8.8739982 1.70915226 8.8739982 1.70915226 7 4 C6.34 3.67 5.68 3.34 5 3 C5 2.34 5 1.68 5 1 C4.01 1.33 3.02 1.66 2 2 C1.34 1.34 0.68 0.68 0 0 Z " fill="#01041C" transform="translate(506,189)"/>
<path d="M0 0 C2 1 2 1 2.640625 2.70703125 C2.84171875 3.40183594 3.0428125 4.09664062 3.25 4.8125 C4.83775974 9.22031063 6.67492193 10.95986884 11 13 C13.70209179 13.56963016 16.23147955 13.80906756 19 14 C19 14.33 19 14.66 19 15 C14.01783075 15.35446263 10.14605761 15.54177269 5.5625 13.375 C1.95623512 10.03260816 0.1354094 7.07627748 -0.1875 2.125 C-0.125625 1.42375 -0.06375 0.7225 0 0 Z " fill="#010F35" transform="translate(505,191)"/>
<path d="M0 0 C9.80645161 -0.57685009 9.80645161 -0.57685009 14 3 C16.53806697 6.41326248 17 7.63912344 17 12 C14.00022122 10.50011061 13.44411857 7.94840874 12 5 C9.41073669 2.41073669 7.97294721 2.62601957 4.375 2.375 C2.87066406 2.26285156 2.87066406 2.26285156 1.3359375 2.1484375 C0.56507813 2.09945312 -0.20578125 2.05046875 -1 2 C-0.67 1.34 -0.34 0.68 0 0 Z " fill="#011339" transform="translate(513,167)"/>
<path d="M0 0 C6.75220506 0.89402018 10.93019803 5.34806622 15 10.5625 C16.21031316 13.51263832 16.22037451 15.84129872 16 19 C13.80120236 16.80120236 13.13988722 15.09435687 11.9375 12.25 C9.4927837 7.16175011 6.62547447 4.84142331 1.79296875 2.05859375 C1.20128906 1.70925781 0.60960937 1.35992187 0 1 C0 0.67 0 0.34 0 0 Z " fill="#010E35" transform="translate(527,158)"/>
<path d="M0 0 C0.66 0 1.32 0 2 0 C1.67 0.66 1.34 1.32 1 2 C-0.28687011 5.86061033 -0.13757618 8.94150283 0 13 C3.3 13.66 6.6 14.32 10 15 C10 15.33 10 15.66 10 16 C2.00819672 16.6147541 2.00819672 16.6147541 -1.5625 14.4375 C-3.55587025 11.0574374 -3.47490813 8.86710904 -3 5 C-1.625 2.0625 -1.625 2.0625 0 0 Z " fill="#020B25" transform="translate(624,133)"/>
<path d="M0 0 C0.99 0.33 1.98 0.66 3 1 C2.34 1.495 1.68 1.99 1 2.5 C-1.8827217 6.10340212 -1.30200997 8.46985042 -1 13 C2.3 13.66 5.6 14.32 9 15 C9 15.33 9 15.66 9 16 C5.94709737 16.29354833 3.04542461 16.41409388 0 16 C-3.1139376 13.41771029 -3.88506448 11.93864009 -4.375 7.9375 C-4.01355323 5.10616693 -3.57370678 3.36056017 -2 1 C-1.34 0.67 -0.68 0.34 0 0 Z " fill="#041131" transform="translate(866,133)"/>
<path d="M0 0 C3.51860503 1.40744201 4.65587062 2.76354839 6.3125 6.125 C7.48084848 8.29266647 7.48084848 8.29266647 9 10 C12.71256453 10.66923762 12.71256453 10.66923762 16 10 C15.67 10.66 15.34 11.32 15 12 C12.35139573 12.59355614 9.70802678 12.74209269 7 13 C6.74605469 12.45730469 6.49210938 11.91460937 6.23046875 11.35546875 C5.71419922 10.28232422 5.71419922 10.28232422 5.1875 9.1875 C4.85105469 8.47980469 4.51460937 7.77210938 4.16796875 7.04296875 C3.08586675 4.94242539 3.08586675 4.94242539 1.36328125 3.36328125 C0.91339844 2.91339844 0.46351563 2.46351563 0 2 C0 1.34 0 0.68 0 0 Z " fill="#041338" transform="translate(700,152)"/>
<path d="M0 0 C0.33 0 0.66 0 1 0 C1 3.96 1 7.92 1 12 C5.29 12 9.58 12 14 12 C14 12.66 14 13.32 14 14 C8.97703996 15.13016601 5.02125926 14.77916092 0 14 C0 9.38 0 4.76 0 0 Z " fill="#000B2D" transform="translate(624,202)"/>
<path d="M0 0 C0.7795458 2.80747455 1.1710149 5.42029808 1.31640625 8.328125 C1.35830078 9.12734375 1.40019531 9.9265625 1.44335938 10.75 C1.48267578 11.575 1.52199219 12.4 1.5625 13.25 C1.62727539 14.51070312 1.62727539 14.51070312 1.69335938 15.796875 C1.79908543 17.86440671 1.90001295 19.93218281 2 22 C1.34 22 0.68 22 0 22 C-1.9520887 14.27231003 -2.5479439 7.64383171 0 0 Z " fill="#010F38" transform="translate(491,178)"/>
<path d="M0 0 C1.74216797 0.02707031 1.74216797 0.02707031 3.51953125 0.0546875 C4.39996094 0.07789063 5.28039062 0.10109375 6.1875 0.125 C6.5175 0.785 6.8475 1.445 7.1875 2.125 C6.31867187 2.18558594 5.44984375 2.24617187 4.5546875 2.30859375 C3.40226563 2.39238281 2.24984375 2.47617188 1.0625 2.5625 C-0.07445312 2.64371094 -1.21140625 2.72492188 -2.3828125 2.80859375 C-5.5665478 3.10230965 -8.66760907 3.55624313 -11.8125 4.125 C-11.8125 3.465 -11.8125 2.805 -11.8125 2.125 C-7.73526266 0.17468308 -4.49557578 -0.09081971 0 0 Z " fill="#010F38" transform="translate(926.8125,155.875)"/>
<path d="M0 0 C-0.60698743 4.12751449 -2.03810791 7.3321148 -4 11 C-4.99 10.67 -5.98 10.34 -7 10 C-5.68 7.36 -4.36 4.72 -3 2 C-6.63 2 -10.26 2 -14 2 C-14 1.67 -14 1.34 -14 1 C-12.22932584 0.83165067 -10.45845388 0.66538091 -8.6875 0.5 C-7.70136719 0.4071875 -6.71523438 0.314375 -5.69921875 0.21875 C-3 0 -3 0 0 0 Z " fill="#010F38" transform="translate(545,198)"/>
<path d="M0 0 C2.4375 2.0625 2.4375 2.0625 4 4 C3.505 3.855625 3.01 3.71125 2.5 3.5625 C-4.22759821 2.0487904 -7.94398334 1.21498959 -14 5 C-13.01158836 2.3043319 -12.30627815 1.18376689 -9.8125 -0.3125 C-6.1515807 -1.20739139 -3.64619779 -0.92812307 0 0 Z " fill="#011339" transform="translate(926,169)"/>
<path d="M0 0 C1.01513672 0.14405273 1.01513672 0.14405273 2.05078125 0.29101562 C4.98319827 0.7219132 7.68276145 1.24842048 10.5 2.1875 C10.5 2.8475 10.5 3.5075 10.5 4.1875 C7.53 3.8575 4.56 3.5275 1.5 3.1875 C1.5 2.5275 1.5 1.8675 1.5 1.1875 C-2.46 1.1875 -6.42 1.1875 -10.5 1.1875 C-6.69148817 -1.35150789 -4.27675977 -0.68020846 0 0 Z " fill="#011237" transform="translate(694.5,133.8125)"/>
<path d="M0 0 C0.88623047 0.04833984 1.77246094 0.09667969 2.68554688 0.14648438 C3.59755859 0.20255859 4.50957031 0.25863281 5.44921875 0.31640625 C6.84624023 0.3947168 6.84624023 0.3947168 8.27148438 0.47460938 C10.56028228 0.60372105 12.84858061 0.7386604 15.13671875 0.87890625 C11.30764388 3.43162283 8.19087963 3.13748231 3.76171875 3.06640625 C3.00632812 3.06576172 2.2509375 3.06511719 1.47265625 3.06445312 C-2.43116592 3.03374124 -6.05220502 2.82787942 -9.86328125 1.87890625 C-9.86328125 1.54890625 -9.86328125 1.21890625 -9.86328125 0.87890625 C-6.4602637 0.09237223 -3.48337081 -0.20226024 0 0 Z " fill="#00062A" transform="translate(515.86328125,180.12109375)"/>
<path d="M0 0 C4.29 0 8.58 0 13 0 C13 1.32 13 2.64 13 4 C12.34 4 11.68 4 11 4 C11 3.34 11 2.68 11 2 C9.3745692 2.14095064 7.74965949 2.28792087 6.125 2.4375 C5.22007812 2.51871094 4.31515625 2.59992188 3.3828125 2.68359375 C0.98889139 2.86989285 0.98889139 2.86989285 -1 4 C-0.67 2.68 -0.34 1.36 0 0 Z " fill="#000D34" transform="translate(933,214)"/>
<path d="M0 0 C0.66 0.33 1.32 0.66 2 1 C1.2575 1.61875 0.515 2.2375 -0.25 2.875 C-3.93580274 6.49779756 -5.33513984 11.21003921 -7 16 C-7.33 16 -7.66 16 -8 16 C-8.86967156 10.34713483 -6.59673164 7.30977969 -3.5078125 2.85546875 C-2 1 -2 1 0 0 Z " fill="#010F36" transform="translate(562,162)"/>
<path d="M0 0 C3.9760803 -0.46233492 5.56851204 -0.30954571 8.875 2.0625 C11.47048413 5.65037512 11.4247346 7.6677071 11 12 C10.34 12 9.68 12 9 12 C8.9175 10.906875 8.835 9.81375 8.75 8.6875 C8.35832667 5.02483452 8.35832667 5.02483452 6.1875 3.1875 C4.14281205 2.07752654 2.11044162 0.97984789 0 0 Z " fill="#041236" transform="translate(871,132)"/>
<path d="M0 0 C0.66 0 1.32 0 2 0 C1.67 1.65 1.34 3.3 1 5 C-3.92737019 6.97094808 -7.78020872 7.1799928 -13 7 C-13 6.67 -13 6.34 -13 6 C-12.22914063 5.81824219 -11.45828125 5.63648438 -10.6640625 5.44921875 C-9.15972656 5.07216797 -9.15972656 5.07216797 -7.625 4.6875 C-6.62726562 4.44386719 -5.62953125 4.20023438 -4.6015625 3.94921875 C-1.6915014 3.17806142 -1.6915014 3.17806142 0 0 Z " fill="#001139" transform="translate(591,197)"/>
<path d="M0 0 C2.125 0 2.125 0 5 1 C7.25484692 3.49775783 9.14265083 6.19801963 11 9 C10.67 9.66 10.34 10.32 10 11 C9.34 11 8.68 11 8 11 C7.4121875 9.6696875 7.4121875 9.6696875 6.8125 8.3125 C4.93363045 4.87870392 2.86704545 2.63458231 0 0 Z " fill="#03102E" transform="translate(935,158)"/>
<path d="M0 0 C5.28 0 10.56 0 16 0 C16 1.65 16 3.3 16 5 C15.34 4.34 14.68 3.68 14 3 C11.63969304 2.54152311 9.2601826 2.17856869 6.875 1.875 C5.59367188 1.70742187 4.31234375 1.53984375 2.9921875 1.3671875 C1.51105469 1.18542969 1.51105469 1.18542969 0 1 C0 0.67 0 0.34 0 0 Z " fill="#010E30" transform="translate(864,157)"/>
<path d="M0 0 C1.875 0.3125 1.875 0.3125 4 1 C6.46324069 4.69486103 6.38991688 6.63293092 6 11 C4.48046875 12.71875 4.48046875 12.71875 3 14 C3.03480469 13.32453125 3.06960938 12.6490625 3.10546875 11.953125 C3.13253906 11.06109375 3.15960937 10.1690625 3.1875 9.25 C3.22230469 8.36828125 3.25710938 7.4865625 3.29296875 6.578125 C2.94923684 3.55328417 1.99772541 2.24416398 0 0 Z " fill="#041234" transform="translate(635,133)"/>
<path d="M0 0 C-2.19458816 2.19458816 -3.45683722 2.60806985 -6.375 3.5 C-9.42051297 4.43708091 -12.18179223 5.50725068 -15 7 C-15 6.01 -15 5.02 -15 4 C-9.77228537 0.95842058 -6.07328688 -0.50610724 0 0 Z " fill="#010D2F" transform="translate(682,135)"/>
<path d="M0 0 C4.29 0 8.58 0 13 0 C12.67 0.99 12.34 1.98 12 3 C7.71 3 3.42 3 -1 3 C-0.67 2.01 -0.34 1.02 0 0 Z " fill="#000E34" transform="translate(773,214)"/>
<path d="M0 0 C2.64 0.33 5.28 0.66 8 1 C8 1.66 8 2.32 8 3 C8.99 3.33 9.98 3.66 11 4 C11.33 6.97 11.66 9.94 12 13 C11.67 13 11.34 13 11 13 C10.6596875 11.39125 10.6596875 11.39125 10.3125 9.75 C8.57881059 4.79660169 6.18399325 3.18053689 1.6875 0.75 C1.130625 0.5025 0.57375 0.255 0 0 Z " fill="#010E31" transform="translate(824,167)"/>
<path d="M0 0 C3.01906912 0.32347169 4.06256576 1.05918383 6.3125 3.1875 C8 6 8 6 7.75 9.3125 C7.5025 10.199375 7.255 11.08625 7 12 C6.67 12 6.34 12 6 12 C5.81824219 11.38511719 5.63648438 10.77023438 5.44921875 10.13671875 C5.07216797 8.92435547 5.07216797 8.92435547 4.6875 7.6875 C4.32205078 6.48673828 4.32205078 6.48673828 3.94921875 5.26171875 C2.95817977 2.90035427 1.91925057 1.66120007 0 0 Z " fill="#02153A" transform="translate(765,170)"/>
<path d="M0 0 C0.66 0 1.32 0 2 0 C0.9789114 3.67591895 0.08564783 4.9339798 -3 7.3125 C-6 9 -6 9 -8 9 C-8 8.34 -8 7.68 -8 7 C-6.00669158 5.65668346 -4.00615134 4.32405988 -2 3 C-1.34 2.01 -0.68 1.02 0 0 Z " fill="#010F36" transform="translate(705,192)"/>
<path d="M0 0 C4.62 0 9.24 0 14 0 C12.02 0.99 12.02 0.99 10 2 C9.01 2.66 8.02 3.32 7 4 C6.34 3.67 5.68 3.34 5 3 C5 2.34 5 1.68 5 1 C4.01 1.33 3.02 1.66 2 2 C1.34 1.34 0.68 0.68 0 0 Z " fill="#000B25" transform="translate(506,189)"/>
<path d="M0 0 C0.33 0 0.66 0 1 0 C1.33 3.63 1.66 7.26 2 11 C1.01 10.67 0.02 10.34 -1 10 C-0.67 6.7 -0.34 3.4 0 0 Z " fill="#000D2F" transform="translate(894,198)"/>
<path d="M0 0 C0 2.97 0 5.94 0 9 C-0.33 9 -0.66 9 -1 9 C-1 6.69 -1 4.38 -1 2 C-1.99 2.33 -2.98 2.66 -4 3 C-6.00875442 2.72428861 -8.01178687 2.39764263 -10 2 C-10 1.67 -10 1.34 -10 1 C-6.56484998 0.37542727 -3.50935186 0 0 0 Z " fill="#000A2B" transform="translate(836,188)"/>
<path d="M0 0 C0.66 0 1.32 0 2 0 C0.6302836 3.99500618 -1.25722422 6.80009492 -4 10 C-3.52651586 5.8333396 -2.95303159 3.07115285 0 0 Z " fill="#021233" transform="translate(509,170)"/>
<path d="M0 0 C3.82524236 1.450954 5.19090966 3.38181932 7 7 C7 7.66 7 8.32 7 9 C6.34 9 5.68 9 5 9 C3.08152136 6.12228205 1.49920512 3.11373372 0 0 Z " fill="#010E2B" transform="translate(700,152)"/>
<path d="M0 0 C0 0.66 0 1.32 0 2 C-2.90548882 4.04169485 -4.40142046 5 -8 5 C-7.67 4.01 -7.34 3.02 -7 2 C-4.56723614 0.81480735 -2.71982714 0 0 0 Z " fill="#020F31" transform="translate(831,212)"/>
<path d="M0 0 C0.33 0.66 0.66 1.32 1 2 C1.61875 1.79375 2.2375 1.5875 2.875 1.375 C3.57625 1.25125 4.2775 1.1275 5 1 C5.66 1.66 6.32 2.32 7 3 C4.03 3.66 1.06 4.32 -2 5 C-2 3.68 -2 2.36 -2 1 C-1.34 0.67 -0.68 0.34 0 0 Z " fill="#081F57" transform="translate(402,211)"/>
<path d="M0 0 C-0.33 0.99 -0.66 1.98 -1 3 C-4.63 2.67 -8.26 2.34 -12 2 C-12 1.67 -12 1.34 -12 1 C-10.56274129 0.83126522 -9.12518162 0.66509263 -7.6875 0.5 C-6.88699219 0.4071875 -6.08648438 0.314375 -5.26171875 0.21875 C-3 0 -3 0 0 0 Z " fill="#000730" transform="translate(815,174)"/>
<path d="M0 0 C-2.85306797 2.32472205 -5.54074837 3.7508258 -9 5 C-6.81610567 0.16423399 -5.20641855 -0.13701101 0 0 Z " fill="#020D33" transform="translate(510,158)"/>
<path d="M0 0 C0.66 0 1.32 0 2 0 C1.01 2.97 0.02 5.94 -1 9 C-1.66 7.68 -2.32 6.36 -3 5 C-1.75 2.25 -1.75 2.25 0 0 Z " fill="#021033" transform="translate(624,133)"/>
<path d="" fill="#003131" transform="translate(0,0)"/>
<path d="M0 0 C0.99 0.495 0.99 0.495 2 1 C1.01 1.495 1.01 1.495 0 2 C0 1.34 0 0.68 0 0 Z " fill="#000046" transform="translate(508,192)"/>
<path d="M0 0 C2 1 2 1 2 1 Z " fill="#3FFFFF" transform="translate(208,319)"/>
<path d="" fill="#00FFFF" transform="translate(0,0)"/>
<path d="M0 0 C2 1 2 1 2 1 Z " fill="#00FFFF" transform="translate(227,248)"/>
<path d="M0 0 C2 1 2 1 2 1 Z " fill="#000000" transform="translate(436,201)"/>
<path d="" fill="#00003F" transform="translate(0,0)"/>
<path d="" fill="#003F3F" transform="translate(0,0)"/>
<path d="" fill="#00FFFF" transform="translate(0,0)"/>
<path d="" fill="#7FFFFF" transform="translate(0,0)"/>
<path d="" fill="#00FFFF" transform="translate(0,0)"/>
<path d="" fill="#00FFFF" transform="translate(0,0)"/>
<path d="" fill="#00FFFF" transform="translate(0,0)"/>
<path d="" fill="#000000" transform="translate(0,0)"/>
<path d="" fill="#000000" transform="translate(0,0)"/>
<path d="" fill="#00007F" transform="translate(0,0)"/>
<path d="" fill="#00007F" transform="translate(0,0)"/>
<path d="" fill="#00007F" transform="translate(0,0)"/>
<path d="" fill="#005555" transform="translate(0,0)"/>
<path d="" fill="#00FFFF" transform="translate(0,0)"/>
<path d="" fill="#000000" transform="translate(0,0)"/>
<path d="" fill="#000000" transform="translate(0,0)"/>
<path d="" fill="#00007F" transform="translate(0,0)"/>
<path d="" fill="#00007F" transform="translate(0,0)"/>
<path d="" fill="#7FFFFF" transform="translate(0,0)"/>
<path d="" fill="#000055" transform="translate(0,0)"/>
<path d="" fill="#000000" transform="translate(0,0)"/>
<path d="" fill="#000000" transform="translate(0,0)"/>
<path d="" fill="#000000" transform="translate(0,0)"/>
<path d="" fill="#00007F" transform="translate(0,0)"/>
<path d="" fill="#000000" transform="translate(0,0)"/>
<path d="" fill="#000000" transform="translate(0,0)"/>
<path d="" fill="#00FFFF" transform="translate(0,0)"/>
<path d="" fill="#00FFFF" transform="translate(0,0)"/>
<path d="" fill="#000000" transform="translate(0,0)"/>
<path d="" fill="#000000" transform="translate(0,0)"/>
<path d="" fill="#000000" transform="translate(0,0)"/>
<path d="" fill="#005555" transform="translate(0,0)"/>
<path d="" fill="#000000" transform="translate(0,0)"/>
<path d="" fill="#000055" transform="translate(0,0)"/>
<path d="" fill="#000000" transform="translate(0,0)"/>
<path d="" fill="#00007F" transform="translate(0,0)"/>
<path d="" fill="#000000" transform="translate(0,0)"/>
<path d="" fill="#00FFFF" transform="translate(0,0)"/>
<path d="" fill="#00007F" transform="translate(0,0)"/>
<path d="" fill="#000000" transform="translate(0,0)"/>
<path d="" fill="#000000" transform="translate(0,0)"/>
<path d="" fill="#000000" transform="translate(0,0)"/>
<path d="" fill="#000000" transform="translate(0,0)"/>
<path d="" fill="#7FFFFF" transform="translate(0,0)"/>
<path d="" fill="#00FFFF" transform="translate(0,0)"/>
<path d="" fill="#00007F" transform="translate(0,0)"/>
<path d="" fill="#00007F" transform="translate(0,0)"/>
<path d="" fill="#000000" transform="translate(0,0)"/>
<path d="" fill="#000000" transform="translate(0,0)"/>
<path d="" fill="#000000" transform="translate(0,0)"/>
<path d="" fill="#00007F" transform="translate(0,0)"/>
<path d="" fill="#000000" transform="translate(0,0)"/>
<path d="" fill="#00007F" transform="translate(0,0)"/>
<path d="" fill="#00007F" transform="translate(0,0)"/>
<path d="" fill="#00007F" transform="translate(0,0)"/>
<path d="" fill="#000000" transform="translate(0,0)"/>
<path d="" fill="#000000" transform="translate(0,0)"/>
<path d="" fill="#000000" transform="translate(0,0)"/>
<path d="" fill="#000000" transform="translate(0,0)"/>
<path d="" fill="#000000" transform="translate(0,0)"/>
<path d="" fill="#000000" transform="translate(0,0)"/>
<path d="" fill="#000000" transform="translate(0,0)"/>
<path d="" fill="#000000" transform="translate(0,0)"/>
<path d="" fill="#00007F" transform="translate(0,0)"/>
<path d="" fill="#005555" transform="translate(0,0)"/>
<path d="" fill="#000000" transform="translate(0,0)"/>
<path d="" fill="#00007F" transform="translate(0,0)"/>
<path d="" fill="#7FFFFF" transform="translate(0,0)"/>
<path d="" fill="#00FFFF" transform="translate(0,0)"/>
<path d="" fill="#00FFFF" transform="translate(0,0)"/>
<path d="" fill="#00FFFF" transform="translate(0,0)"/>
<path d="" fill="#00FFFF" transform="translate(0,0)"/>
<path d="" fill="#000000" transform="translate(0,0)"/>
<path d="" fill="#000000" transform="translate(0,0)"/>
<path d="" fill="#0000FF" transform="translate(0,0)"/>
<path d="" fill="#000000" transform="translate(0,0)"/>
<path d="" fill="#5555AA" transform="translate(0,0)"/>
<path d="" fill="#00FFFF" transform="translate(0,0)"/>
<path d="" fill="#7FFFFF" transform="translate(0,0)"/>
<path d="" fill="#00FFFF" transform="translate(0,0)"/>
</svg>
